<svg width="202px" height="118px" viewBox="0 0 202 118" version="1.1" xmlns="http://www.w3.org/2000/svg" xmlns:xlink="http://www.w3.org/1999/xlink">
    <defs>
        <path d="M164.216152,1223.33309 C163.681682,1223.33309 163.254106,1223.1193 163.040318,1222.90551 C162.398954,1222.26415 162.29206,1221.3021 162.82653,1219.5918 C163.040318,1218.62975 163.467894,1217.8815 163.467894,1217.7746 L164.216152,1216.0643 C164.536834,1215.31604 164.857516,1214.56778 165.178198,1213.81953 C165.285092,1213.60574 165.391986,1213.39195 165.49888,1213.07127 C165.712668,1212.75059 166.140243,1211.78854 166.354031,1211.14718 C164.643728,1210.82649 163.254106,1209.32998 162.82653,1206.97831 L162.82653,1206.87142 C162.612742,1205.80248 162.185166,1204.30596 161.543803,1203.6646 C161.436909,1203.6646 161.330015,1203.6646 161.116227,1203.6646 C160.795545,1203.77149 160.367969,1203.77149 159.940393,1203.77149 C159.192135,1203.6646 158.336983,1203.13013 158.123196,1203.02323 C156.947362,1202.38187 156.09221,1201.20604 155.664634,1199.92331 C155.130164,1198.42679 155.130164,1196.93028 155.237058,1195.75444 C155.237058,1195.54066 155.237058,1195.43376 155.237058,1195.32687 C154.702588,1195.21997 153.954331,1195.32687 153.206073,1195.43376 C152.778497,1195.43376 152.457815,1195.54066 152.030239,1195.54066 L147.006222,1195.86134 C134.072052,1196.6096 121.030987,1197.35785 108.203711,1197.89232 L107.562347,1197.89232 C95.0557522,1198.53369 82.2284756,1199.06816 69.5080929,1199.49573 C65.8736979,1199.60263 63.5220305,1198.42679 63.0944546,1196.18202 C63.0944546,1195.86134 62.8806667,1195.64755 62.6668787,1195.54066 C61.9186209,1195.11308 60.4221053,1195.00619 58.7118018,1195.32687 C57.0014982,1195.64755 54.6498308,1195.43376 53.2602092,1194.25793 C52.5119514,1193.61656 52.1912695,1192.76141 52.2981635,1191.79937 C52.2981635,1191.69247 52.2981635,1191.58558 52.0843755,1191.37179 C51.6567996,1190.94422 50.6947539,1190.73043 49.9464961,1190.83732 C49.6258142,1190.83732 49.4120262,1190.94422 49.0913443,1190.94422 C47.7017227,1191.158 45.9914191,1191.47869 44.6017975,1190.40975 C42.7846,1189.02012 43.1052819,1186.34777 43.3190698,1185.17194 L45.6707372,1167.32065 C45.9914191,1164.75519 46.525889,1161.97595 48.6637684,1160.37254 C49.8396021,1159.41049 51.3361177,1159.08981 52.7257393,1158.76913 C53.2602092,1158.66224 53.6877851,1158.55534 54.2222549,1158.44845 C55.6118766,1158.02087 57.0014982,1156.95193 56.8946042,1155.7761 C56.6808163,1153.63822 58.6049078,1152.03481 60.6358932,1151.60723 C61.2772571,1151.50034 61.9186209,1151.39345 62.5599847,1151.39345 C63.4151365,1151.28655 64.2702883,1151.28655 65.0185461,1150.96587 C66.1943798,1150.53829 67.0495316,1149.36246 67.5840014,1147.75905 C67.6908954,1147.43837 67.7977894,1147.01079 67.7977894,1146.47632 C68.0115773,1145.0867 68.3322592,1143.05572 70.4701387,1142.52125 C71.5390784,1142.30746 72.7149121,1142.30746 73.7838518,1142.41435 C74.2114277,1142.41435 74.6390036,1142.41435 75.0665794,1142.41435 L190.725857,1140.81094 C192.008585,1140.81094 193.611994,1140.81094 195.001616,1141.5592 C195.856768,1142.09367 196.605025,1142.94882 196.818813,1143.91087 C197.032601,1144.76602 196.925707,1145.51428 196.498131,1146.26253 C196.498131,1146.26253 196.391237,1146.47632 196.498131,1146.9039 C196.711919,1147.43837 197.460177,1147.86594 198.101541,1147.97284 C198.849799,1148.07973 199.598057,1147.97284 200.453208,1147.75905 C201.201466,1147.65216 201.949724,1147.43837 202.697982,1147.43837 C204.087603,1147.43837 205.477225,1148.07973 206.225483,1149.04178 C206.866847,1149.79004 207.080635,1150.64519 206.866847,1151.50034 C206.759953,1151.82102 206.866847,1152.2486 207.187529,1152.56928 C207.615104,1153.21064 208.57715,1153.63822 209.432302,1153.85201 C210.287454,1153.9589 211.249499,1153.85201 212.211545,1153.74511 C213.066697,1153.63822 213.921849,1153.53133 214.777001,1153.63822 C217.128668,1153.74511 219.694123,1155.24163 219.801017,1157.70019 C220.014805,1161.22769 220.228593,1164.86209 220.442381,1168.49648 C220.656169,1171.91709 220.869957,1175.2308 221.083745,1178.65141 C221.190639,1180.36171 221.297533,1182.3927 220.335487,1184.20989 C219.694123,1185.38573 218.625184,1186.24088 217.342456,1186.56156 C216.38041,1186.77535 215.31147,1186.66846 214.563213,1186.13399 C214.242531,1186.13399 213.708061,1187.09603 213.708061,1187.95118 C213.708061,1189.66149 213.814955,1192.22694 211.570181,1192.9752 C210.71503,1193.18899 209.859878,1193.08209 209.11162,1192.9752 C208.790938,1192.9752 208.363362,1192.86831 208.149574,1192.86831 C207.721998,1196.5027 203.766921,1198.64058 197.673965,1198.64058 C195.001616,1198.64058 192.222373,1198.74748 189.550023,1198.74748 C186.877674,1198.74748 184.098431,1198.74748 181.426081,1198.85437 C180.03646,1198.85437 178.005474,1199.28194 178.005474,1200.35088 C177.577898,1209.54377 172.446988,1218.20218 164.750622,1223.1193 L164.42994,1223.22619 C164.643728,1223.22619 164.42994,1223.33309 164.216152,1223.33309 Z" id="path-1"></path>
        <filter x="-10.4%" y="-23.6%" width="120.8%" height="144.7%" filterUnits="objectBoundingBox" id="filter-2">
            <feOffset dx="0" dy="-1" in="SourceAlpha" result="shadowOffsetOuter1"></feOffset>
            <feGaussianBlur stdDeviation="6" in="shadowOffsetOuter1" result="shadowBlurOuter1"></feGaussianBlur>
            <feColorMatrix values="0 0 0 0 0   0 0 0 0 0   0 0 0 0 0  0 0 0 0.132246377 0" type="matrix" in="shadowBlurOuter1"></feColorMatrix>
        </filter>
    </defs>
    <g id="Page-1" stroke="none" stroke-width="1" fill="none" fill-rule="evenodd">
        <g id="1280-copy-11" transform="translate(-30.000000, -1120.000000)">
            <g id="Path" transform="translate(132.151351, 1182.072016) scale(-1, 1) rotate(10.000000) translate(-132.151351, -1182.072016) ">
                <use fill="black" fill-opacity="1" filter="url(#filter-2)" xlink:href="#path-1"></use>
                <use fill="#FFFFFF" fill-rule="evenodd" xlink:href="#path-1"></use>
            </g>
        </g>
    </g>
</svg>