<svg width="119px" height="232px" viewBox="0 0 119 232" version="1.1" xmlns="http://www.w3.org/2000/svg" xmlns:xlink="http://www.w3.org/1999/xlink">
    <defs>
        <filter x="-14.8%" y="-7.1%" width="129.5%" height="114.2%" filterUnits="objectBoundingBox" id="filter-1">
            <feOffset dx="0" dy="-4" in="SourceAlpha" result="shadowOffsetOuter1"></feOffset>
            <feGaussianBlur stdDeviation="3.5" in="shadowOffsetOuter1" result="shadowBlurOuter1"></feGaussianBlur>
            <feColorMatrix values="0 0 0 0 0   0 0 0 0 0   0 0 0 0 0  0 0 0 0.171280571 0" type="matrix" in="shadowBlurOuter1" result="shadowMatrixOuter1"></feColorMatrix>
            <feMerge>
                <feMergeNode in="shadowMatrixOuter1"></feMergeNode>
                <feMergeNode in="SourceGraphic"></feMergeNode>
            </feMerge>
        </filter>
    </defs>
    <g id="Page-1" stroke="none" stroke-width="1" fill="none" fill-rule="evenodd">
        <g id="iPhone-8-Copy-6" transform="translate(-100.000000, -1411.000000)" fill="#FFFFFF">
            <g id="Group-11" transform="translate(87.413368, 1421.748454)">
                <g id="Фигура_19_2_" filter="url(#filter-1)" transform="translate(72.266193, 109.286207) scale(-1, 1) translate(-72.266193, -109.286207) translate(19.766193, 0.286207)">
                    <path d="M90.3871461,217.848023 C88.304493,217.848023 86.6383705,216.806697 85.3887786,215.76537 C83.9309214,214.724044 82.6813295,213.682717 81.2234723,212.433125 C77.4746967,209.309146 73.9341864,206.393431 69.5606148,205.976901 C66.6449004,205.56037 63.729186,206.393431 60.8134716,207.226492 C60.1886756,207.434758 59.5638797,207.643023 58.7308185,207.851288 C44.5687771,211.391799 29.3654092,209.933941 16.0364292,203.477717 C12.4959188,201.811594 9.1636738,198.687615 6.45622472,194.314043 C0.833061255,185.358634 -1.04132657,173.695777 1.4578572,163.490777 C4.16530627,153.285776 11.2463269,143.913837 20.4100007,138.707204 C25.8248989,135.79149 32.2811236,133.708837 40.1952055,132.66751 L40.8200015,132.66751 C43.1109199,132.250979 45.4018384,132.042714 47.0679609,131.001388 C48.1092875,130.376592 48.9423487,128.918734 48.9423487,128.293939 C48.9423487,128.293939 48.9423487,128.085673 48.5258181,127.877408 C47.6927568,127.460877 46.4431649,127.460877 45.4018384,127.460877 C44.1522465,127.460877 42.9026546,127.460877 41.6530627,127.044347 C38.3208177,126.211285 34.9885727,124.545163 32.2811236,122.254244 C26.2414295,117.672408 22.7009192,111.216183 22.0761232,104.343427 C21.6595926,97.6789374 23.9505111,90.8061821 28.9488786,85.3912839 C33.7389808,79.9763857 40.4034709,76.852406 46.8596956,76.6441407 C47.4844915,76.6441407 48.1092875,76.0193448 48.3175528,75.8110795 C48.9423487,74.9780182 49.150614,73.9366916 48.7340834,73.1036304 C48.1092875,71.0209773 45.6101037,69.7713854 43.7357159,69.3548547 C41.6530627,68.9383241 39.5704096,68.9383241 37.2794911,69.1465894 C36.6546952,69.1465894 36.2381646,69.1465894 35.6133686,69.1465894 C24.1587764,69.5631201 14.578572,65.8143444 9.37193911,58.9415891 C7.28928598,56.23414 5.62316347,52.6936297 4.5818369,48.5283234 C1.87438782,38.323323 3.1239797,27.0769961 7.49755129,17.4967916 C9.78846974,12.7066894 13.953776,6.04219939 21.0347967,2.91821968 C23.9505111,1.6686278 27.2827561,0.835566548 31.6563277,0.419035921 C44.5687771,-0.622290648 57.8977572,2.08515843 69.1440841,8.33311784 C72.0597985,9.99924035 75.8085742,12.2901588 78.0994926,15.8306691 C79.9738804,18.7463835 80.8069417,22.2868939 81.2234723,24.7860776 C82.2647989,30.8257717 83.7226561,46.0291396 73.5176557,55.4010787 C72.2680638,56.4424053 71.2267373,57.2754666 69.9771454,58.3167931 C68.1027576,59.7746503 66.2283697,61.0242422 64.9787779,62.89863 C63.9374513,64.3564872 63.3126554,66.4391404 63.729186,68.1052629 C63.9374513,69.1465894 64.3539819,69.7713854 65.1870432,70.187916 C66.4366351,71.0209773 68.1027576,70.6044466 70.1854107,70.3961813 C71.018472,70.187916 71.8515332,70.187916 72.6845945,69.9796507 C82.4730642,69.1465894 90.1788808,77.2689367 93.7193911,84.5582226 C98.5094934,94.3466924 98.926024,105.176489 94.7607177,113.507101 C89.9706155,123.295571 78.7242886,128.710469 69.1440841,126.211285 C68.9358188,126.211285 68.5192882,126.419551 68.3110229,126.419551 C67.8944923,126.836081 67.4779616,127.460877 67.4779616,127.877408 C67.4779616,129.335265 68.9358188,130.376592 70.1854107,131.001388 C71.4350026,131.626184 73.1011251,131.834449 74.5589823,132.250979 C74.9755129,132.250979 75.6003089,132.459245 76.0168395,132.459245 C88.0962277,134.958429 98.5094934,143.913837 102.466534,155.160164 C106.631841,166.823022 103.924392,180.568532 95.3855137,189.10741 C89.7623502,194.730574 88.9292889,204.519043 93.5111258,211.183533 C94.3441871,212.22486 94.3441871,213.682717 93.7193911,214.932309 C93.0945952,216.390166 91.636738,217.431493 90.1788808,217.639758 C91.0119421,217.848023 90.8036768,217.848023 90.3871461,217.848023 Z" id="Path"></path>
                </g>
            </g>
        </g>
    </g>
</svg>