<svg xmlns="http://www.w3.org/2000/svg" width="94.687" height="56.09" viewBox="0 0 94.687 56.09">
  <metadata><?xpacket begin="﻿" id="W5M0MpCehiHzreSzNTczkc9d"?>
<x:xmpmeta xmlns:x="adobe:ns:meta/" x:xmptk="Adobe XMP Core 5.6-c142 79.160924, 2017/07/13-01:06:39        ">
   <rdf:RDF xmlns:rdf="http://www.w3.org/1999/02/22-rdf-syntax-ns#">
      <rdf:Description rdf:about=""/>
   </rdf:RDF>
</x:xmpmeta>
                                                                                                    
                                                                                                    
                                                                                                    
                                                                                                    
                                                                                                    
                                                                                                    
                                                                                                    
                                                                                                    
                                                                                                    
                                                                                                    
                                                                                                    
                                                                                                    
                                                                                                    
                                                                                                    
                                                                                                    
                                                                                                    
                                                                                                    
                                                                                                    
                                                                                                    
                                                                                                    
                           
<?xpacket end="w"?></metadata>
<defs>
    <style>
      .cls-1 {
        fill: #fff;
        fill-rule: evenodd;
      }
    </style>
  </defs>
  <path id="Ellipse_1_copy_6" data-name="Ellipse 1 copy 6" class="cls-1" d="M635.263,1647.38c10.016,0,8.5-3.58,22.428,1.26,4.774,1.66,7.671,6.64,11.309,9.36,6.822,5.1,2.966,6.83,4.763,16.64,1.286,7.02-2.541,14.52-8.763,19.36a30.619,30.619,0,0,1-6.922,4.46,20.343,20.343,0,0,1-10.676,2.49c-12.208,0-19.734.05-20.4,0.05-0.1,0-6.033.48-20,1-11.464.42-13.729-2.07-19-9-3.619-4.76-3.262.21-7.747-8.18-1.924-3.6-.253-9.96-0.253-13.82,0-5.99.5-9.54,5.659-13.33,3.543-2.6,2.82-8.11,11.884-10.12,10.913-2.41,10.094-.1,15.849-0.71,2.063-.22,2.074,1.02,9.315-0.39C630.434,1644.95,632.732,1647.38,635.263,1647.38Z" transform="translate(-579.344 -1645.97)"/>
</svg>
