<svg xmlns="http://www.w3.org/2000/svg" xmlns:xlink="http://www.w3.org/1999/xlink" preserveAspectRatio="xMidYMid" width="186.844" height="134.25" viewBox="0 0 186.844 134.25">
  <defs>
    <style>
      .cls-1 {
        fill: #fff;
        fill-rule: evenodd;
      }
    </style>
  </defs>
  <path d="M90.844,10.030 C100.994,10.030 110.228,10.320 118.844,15.030 C119.669,15.481 119.606,17.222 129.844,19.030 C130.877,19.212 140.235,9.780 145.744,6.265 C151.667,2.484 158.765,-0.391 159.844,0.030 C163.026,1.273 158.206,5.617 154.577,10.165 C151.752,13.706 148.043,24.764 148.844,25.030 C152.211,26.146 163.203,27.266 165.844,29.030 C184.673,41.605 186.844,50.203 186.844,72.030 C186.844,83.970 180.701,99.991 172.844,108.030 C168.898,112.066 167.924,111.444 157.025,120.018 C142.937,131.100 130.205,133.030 107.844,133.030 C85.602,133.030 41.283,140.602 31.844,118.030 C31.367,116.890 20.452,118.640 11.844,105.030 C7.606,98.330 5.153,97.584 4.844,97.030 C-1.771,85.176 5.713,74.034 4.844,73.030 C-1.421,65.798 -4.749,49.514 14.844,34.030 C16.085,33.049 16.081,24.785 34.844,18.030 C51.555,12.014 64.625,15.176 64.844,15.030 C73.577,9.179 83.828,10.030 90.844,10.030 Z" class="cls-1"/>
</svg>
