<svg xmlns="http://www.w3.org/2000/svg" xmlns:xlink="http://www.w3.org/1999/xlink" preserveAspectRatio="xMidYMid" width="432" height="336" viewBox="0 0 432 336">
  <defs>
    <style>
      .cls-1 {
        fill: #fff;
        filter: url(#drop-shadow-1);
        fill-rule: evenodd;
      }
    </style>

    <filter id="drop-shadow-1" filterUnits="userSpaceOnUse">
      <feOffset dx="2.789" dy="31.878" in="SourceAlpha"/>
      <feGaussianBlur stdDeviation="8.888" result="dropBlur"/>
      <feFlood flood-color="#94c1ca" flood-opacity="0.34"/>
      <feComposite operator="in" in2="dropBlur" result="dropShadowComp"/>
      <feComposite in="SourceGraphic" result="shadowed"/>
    </filter>
  </defs>
  <path d="M319.821,191.443 C319.821,191.443 335.346,188.388 340.686,174.518 C346.371,159.748 340.435,155.390 340.435,155.390 C340.435,155.390 354.432,144.102 353.230,127.952 C352.011,111.579 332.050,107.709 332.050,107.709 C332.050,107.709 325.919,94.349 314.435,87.390 C308.698,83.914 287.835,76.842 262.071,79.002 C238.736,80.959 242.562,85.432 233.811,85.534 C220.579,85.687 207.745,82.131 197.080,82.813 C180.896,83.849 169.708,88.743 169.708,88.743 C169.733,88.618 143.809,77.846 115.717,94.328 C93.400,107.421 93.137,130.758 93.137,130.758 C93.137,130.758 75.736,144.441 79.077,162.804 C82.753,183.013 102.392,189.299 102.392,189.299 C102.392,189.299 105.787,202.127 121.038,206.927 C135.384,211.442 161.069,211.859 161.069,211.859 C161.069,211.859 164.322,231.248 177.435,245.390 C189.350,258.239 221.435,257.390 221.435,257.390 C221.435,257.390 198.373,256.708 185.435,240.390 C175.572,227.950 180.261,210.734 180.261,210.734 C180.261,210.734 194.531,216.023 210.435,215.390 C222.026,214.928 233.137,209.206 246.849,207.956 C255.965,207.125 264.960,211.537 273.051,211.074 C289.067,210.156 301.537,204.724 304.381,203.846 C314.140,200.832 319.821,191.443 319.821,191.443 Z" class="cls-1"/>
</svg>
