<svg xmlns="http://www.w3.org/2000/svg" xmlns:xlink="http://www.w3.org/1999/xlink" preserveAspectRatio="xMidYMid" width="104.688" height="26.87" viewBox="0 0 104.688 26.87">
  <defs>
    <style>
      .cls-1 {
        fill: #ed1d1d;
        fill-rule: evenodd;
      }
    </style>
  </defs>
  <path d="M103.591,13.555 C103.155,13.822 101.426,14.942 99.616,16.895 C97.301,19.392 94.864,23.023 94.864,23.023 C94.300,23.631 93.351,23.667 92.744,23.103 C92.136,22.540 92.100,21.591 92.663,20.984 C92.663,20.984 94.950,17.516 97.197,15.092 C98.016,14.208 98.828,13.474 99.524,12.901 C97.824,12.622 95.567,12.298 92.844,11.997 L92.844,8.869 C95.055,9.139 96.963,9.426 98.490,9.690 C98.071,9.303 97.637,8.883 97.197,8.408 C94.950,5.983 92.663,2.516 92.663,2.516 C92.100,1.908 92.136,0.960 92.744,0.396 C93.351,-0.167 94.300,-0.131 94.864,0.477 C94.864,0.477 97.301,4.107 99.616,6.605 C101.709,8.862 103.700,10.011 103.700,10.011 C103.941,10.271 104.066,10.594 104.090,10.922 C104.418,11.172 104.647,11.552 104.681,11.996 C104.737,12.722 104.266,13.366 103.591,13.555 ZM90.844,11.790 C88.399,11.552 85.652,11.340 82.612,11.196 L82.320,7.986 C85.482,8.137 88.325,8.373 90.844,8.642 L90.844,11.790 ZM70.844,11.027 L70.844,7.862 C74.215,7.775 77.376,7.803 80.313,7.904 L80.604,11.113 C77.584,11.005 74.323,10.964 70.844,11.027 ZM59.329,8.566 C62.639,8.242 65.816,8.036 68.844,7.921 L68.844,11.074 C65.888,11.161 62.801,11.318 59.579,11.576 L59.329,8.566 ZM49.306,9.832 C51.896,9.433 54.563,9.078 57.301,8.775 L57.571,11.743 C54.860,11.993 52.188,12.319 49.567,12.707 L49.306,9.832 ZM39.892,11.512 C42.267,11.025 44.745,10.576 47.285,10.157 L47.571,13.016 C45.129,13.410 42.734,13.851 40.404,14.332 L39.892,11.512 ZM30.297,13.731 C32.673,13.118 35.184,12.525 37.791,11.961 L38.305,14.785 C35.632,15.372 33.037,15.998 30.563,16.655 L30.297,13.731 ZM20.285,16.604 C22.740,15.827 25.404,15.039 28.255,14.270 L28.522,17.208 C25.699,17.990 23.033,18.798 20.558,19.599 L20.285,16.604 ZM11.613,19.594 C13.584,18.856 15.825,18.062 18.294,17.249 L18.593,20.243 C16.258,21.025 14.114,21.791 12.196,22.509 L11.613,19.594 ZM0.007,25.503 C-0.056,24.677 0.562,23.956 1.388,23.893 C1.388,23.893 4.265,22.449 9.439,20.425 L10.080,23.313 C4.740,25.384 1.618,26.884 1.618,26.884 C0.792,26.948 0.071,26.329 0.007,25.503 Z" class="cls-1"/>
</svg>
