<svg id="arrows" xmlns="http://www.w3.org/2000/svg" width="29.844" height="50.5" viewBox="0 0 29.844 50.5">
  <metadata><?xpacket begin="﻿" id="W5M0MpCehiHzreSzNTczkc9d"?>
<x:xmpmeta xmlns:x="adobe:ns:meta/" x:xmptk="Adobe XMP Core 5.6-c142 79.160924, 2017/07/13-01:06:39        ">
   <rdf:RDF xmlns:rdf="http://www.w3.org/1999/02/22-rdf-syntax-ns#">
      <rdf:Description rdf:about=""/>
   </rdf:RDF>
</x:xmpmeta>
                                                                                                    
                                                                                                    
                                                                                                    
                                                                                                    
                                                                                                    
                                                                                                    
                                                                                                    
                                                                                                    
                                                                                                    
                                                                                                    
                                                                                                    
                                                                                                    
                                                                                                    
                                                                                                    
                                                                                                    
                                                                                                    
                                                                                                    
                                                                                                    
                                                                                                    
                                                                                                    
                           
<?xpacket end="w"?></metadata>
<defs>
    <style>
      .cls-1 {
        fill: #fff;
      }

      .cls-1, .cls-2 {
        fill-rule: evenodd;
      }

      .cls-2 {
        fill: #eb2929;
      }
    </style>
  </defs>
  <path id="Rounded_Rectangle_557" data-name="Rounded Rectangle 557" class="cls-1" d="M32.44,1288.96a4.2,4.2,0,0,1,5.912-.29l21.469,21.3a4.38,4.38,0,0,1-6.142,6.2s-5.627-5.57-11.517-11.42c-4.711-4.67-9.951-9.88-9.951-9.88A4.188,4.188,0,0,1,32.44,1288.96Z" transform="translate(-31.094 -1266.75)"/>
  <path id="Rounded_Rectangle_557_copy" data-name="Rounded Rectangle 557 copy" class="cls-1" d="M32.44,1295.04a4.2,4.2,0,0,0,5.912.29s5.425-6.39,10.821-11.74c5.338-5.3,10.648-9.56,10.648-9.56a4.38,4.38,0,0,0-6.142-6.2s-8.613,7.55-14.772,13.66a68.089,68.089,0,0,0-6.7,7.64A4.188,4.188,0,0,0,32.44,1295.04Z" transform="translate(-31.094 -1266.75)"/>
  <path id="Rounded_Rectangle_3_copy_2" data-name="Rounded Rectangle 3 copy 2" class="cls-2" d="M57.459,1314.34a2.125,2.125,0,0,1-3.005.01,38.586,38.586,0,0,1-4.605-4.26c-1.553-1.71-2.6-3.73-4.541-5.66-5.474-5.42-11.376-10.43-11.376-10.43a2.122,2.122,0,1,1,2.992-3.01,47.882,47.882,0,0,1,6.16,5.25c3.072,3.05,6.73,6.9,9.586,9.95,2.764,2.94,4.776,5.14,4.776,5.14A2.131,2.131,0,0,1,57.459,1314.34Z" transform="translate(-31.094 -1266.75)"/>
  <path id="Rounded_Rectangle_3_copy_5" data-name="Rounded Rectangle 3 copy 5" class="cls-2" d="M57.459,1269.66a2.125,2.125,0,0,0-3.005-.01,38.586,38.586,0,0,0-4.605,4.26c-1.553,1.71-2.6,3.73-4.541,5.66-5.474,5.42-11.376,10.43-11.376,10.43a2.122,2.122,0,1,0,2.992,3.01,47.882,47.882,0,0,0,6.16-5.25c3.072-3.05,6.73-6.9,9.586-9.95,2.764-2.94,4.776-5.14,4.776-5.14A2.131,2.131,0,0,0,57.459,1269.66Z" transform="translate(-31.094 -1266.75)"/>
</svg>
