<svg xmlns="http://www.w3.org/2000/svg" xmlns:xlink="http://www.w3.org/1999/xlink" preserveAspectRatio="xMidYMid" width="46" height="46" viewBox="0 0 46 46">
  <defs>
    <style>
      .cls-1, .cls-3 {
        fill: #fd7319;
      }

      .cls-1 {
        fill-rule: evenodd;
      }

      .cls-2 {
        fill: #fff;
        fill-opacity: 0.45;
      }
    </style>
  </defs>
  <g>
    <path d="M23.000,46.000 C10.297,46.000 -0.000,35.703 -0.000,23.000 C-0.000,10.297 10.297,-0.000 23.000,-0.000 C35.703,-0.000 46.000,10.297 46.000,23.000 C46.000,35.703 35.703,46.000 23.000,46.000 ZM23.000,2.000 C11.402,2.000 2.000,11.402 2.000,23.000 C2.000,34.598 11.402,44.000 23.000,44.000 C34.598,44.000 44.000,34.598 44.000,23.000 C44.000,11.402 34.598,2.000 23.000,2.000 Z" class="cls-1"/>
    <circle cx="23" cy="23" r="21.063" class="cls-2"/>
    <circle cx="23" cy="23" r="13" class="cls-3"/>
  </g>
</svg>
