<?xml version="1.0" encoding="utf-8"?>
<!-- Generator: Adobe Illustrator 22.1.0, SVG Export Plug-In . SVG Version: 6.00 Build 0)  -->
<svg version="1.1" id="Слой_1" xmlns="http://www.w3.org/2000/svg" xmlns:xlink="http://www.w3.org/1999/xlink" x="0px" y="0px"
	 viewBox="0 0 32 49" style="enable-background:new 0 0 32 49;" xml:space="preserve">
<style type="text/css">
	.st0{fill:#FD7319;}
	.st1{fill:#FFFFFF;}
	.st2{fill:#E19D3E;}
	.st3{fill:url(#SVGID_1_);}
	.st4{opacity:0.4;fill:url(#SVGID_2_);}
</style>
<g>
	<path class="st0" d="M16,0c8.8,0,16,7.2,16,16c0,8.8-15.6,33-16,33C15.4,49,0,24.8,0,16C0,7.2,7.2,0,16,0z"/>
	<circle class="st1" cx="16" cy="16" r="13"/>
	<circle class="st2" cx="16" cy="16" r="10"/>
	<path class="st1" d="M22.9,21.6h-3.9v-2.5h-6.4v2.5H9.1v-4.9c0,0,2.2-0.2,2.4-1.5c0.1-0.8,0-4.9,0-4.9s0-0.4,0-0.5
		c-0.1-0.3-0.5-0.5-0.5-0.5h9.8v7.4h1.5c0,0,0,2.5,0,3.9C22.4,21.1,22.9,21.6,22.9,21.6z M17.5,11.8h-2.9c0.1,0,0.2,4.7-0.4,4.9
		l3.4,0V11.8z"/>
</g>
<g>
	<linearGradient id="SVGID_1_" gradientUnits="userSpaceOnUse" x1="26.0274" y1="26.102" x2="4.0384" y2="4.113">
		<stop  offset="0" style="stop-color:#F15D22"/>
		<stop  offset="0.1624" style="stop-color:#F26225"/>
		<stop  offset="0.3737" style="stop-color:#F4732E"/>
		<stop  offset="0.6119" style="stop-color:#F78D3C"/>
		<stop  offset="0.8682" style="stop-color:#FBB250"/>
		<stop  offset="0.9325" style="stop-color:#FCBD56"/>
	</linearGradient>
	<path class="st3" d="M25.9,15.9c0,5.6-4.5,10.1-10.1,10.1c-5.6,0-10.1-4.5-10.1-10.1c0-5.6,4.5-10.1,10.1-10.1
		C21.4,5.7,25.9,10.3,25.9,15.9z"/>
	
		<linearGradient id="SVGID_2_" gradientUnits="userSpaceOnUse" x1="15.7907" y1="25.3769" x2="15.7907" y2="23.0239" gradientTransform="matrix(1 0 0 1 -2.000000e-03 1.000000e-03)">
		<stop  offset="0" style="stop-color:#FFFFFF"/>
		<stop  offset="1" style="stop-color:#FFFFFF;stop-opacity:0"/>
	</linearGradient>
	<path class="st4" d="M25.1,15.9c0,5.1-4.2,9.3-9.3,9.3c-5.1,0-9.3-4.2-9.3-9.3c0-5.1,4.2-9.3,9.3-9.3C20.9,6.6,25.1,10.8,25.1,15.9
		z"/>
	<path class="st1" d="M21.2,20.5c-0.2-0.1-0.2-0.5-0.2-0.5l0,0v-2.6c0-0.3,0-0.6-0.3-0.6h-0.2c-0.5,0-0.5-0.3-0.5-0.6l0-4.8
		c0-0.3-0.3-0.6-0.6-0.6h-2.1h-4.2h-0.7h-0.2h0c-0.1,0-0.2,0.1-0.2,0.2v0c0,0.1,0.1,0.2,0.2,0.2c0.2,0.1,0.2,0.5,0.2,0.8v1.4
		c0,1.9-0.4,2.5-1,3.3l-0.4,0c-0.3,0-0.6,0.3-0.6,0.6v0.8v2.8h1.9c0.3,0,0.6-0.3,0.6-0.6v-0.7c0-0.3,0.2-0.6,0.4-0.6l0.4,0h4l0.4,0
		c0.2,0,0.4,0.3,0.4,0.6v0.7c0,0.3,0.3,0.6,0.6,0.6h1.9l0,0h0.2h0c0.1,0,0.2-0.1,0.2-0.2v-0.1C21.4,20.6,21.4,20.5,21.2,20.5z
		 M17.2,16.2c0,0.3,0,0.6-0.5,0.6l-2.4,0c0.5-0.7,0.8-1.6,0.8-3v-0.7h1.6c0.3,0,0.6,0,0.6,0.5V16.2z"/>
</g>
<path class="st1" d="M17.2,16.2c0,0.3,0,0.6-0.5,0.6l-2.4,0c0.5-0.7,0.8-1.6,0.8-3v-0.7h1.6c0.3,0,0.6,0,0.6,0.5V16.2L17.2,16.2z
	 M21.2,20.5c-0.2-0.1-0.2-0.5-0.2-0.5l0,0v-2.6c0-0.3,0-0.6-0.3-0.6h-0.2c-0.5,0-0.5-0.3-0.5-0.6l0-4.8c0-0.3-0.3-0.6-0.6-0.6h-2.1
	h-4.2h-0.7h-0.2h0c-0.1,0-0.2,0.1-0.2,0.2v0.1c0,0.1,0.1,0.2,0.2,0.2c0.2,0.1,0.2,0.5,0.2,0.8v1.4c0,1.9-0.4,2.5-1,3.3l-0.4,0
	c-0.3,0-0.6,0.3-0.6,0.6v0.8v2.8h1.9c0.3,0,0.6-0.3,0.6-0.6v-0.7c0-0.3,0.2-0.6,0.4-0.6l0.4,0h4l0.4,0c0.2,0,0.4,0.3,0.4,0.6v0.7
	c0,0.3,0.3,0.6,0.6,0.6h1.9h0.2h0c0.1,0,0.2-0.1,0.2-0.2v-0.1C21.4,20.6,21.4,20.5,21.2,20.5L21.2,20.5z"/>
</svg>
