<svg xmlns="http://www.w3.org/2000/svg" xmlns:xlink="http://www.w3.org/1999/xlink" preserveAspectRatio="xMidYMid" width="33.18" height="33.188" viewBox="0 0 33.18 33.188">
  <defs>
    <style>
      .cls-1 {
        fill: #fff;
        fill-rule: evenodd;
      }
    </style>
  </defs>
  <path d="M32.146,5.987 C32.146,5.987 27.664,11.446 21.754,17.377 C26.901,21.936 31.146,25.200 31.146,25.200 C32.513,26.567 32.513,28.783 31.146,30.150 C29.779,31.517 27.563,31.517 26.197,30.150 C26.197,30.150 21.833,26.935 16.671,22.329 C11.111,27.618 5.983,32.150 5.983,32.150 C4.617,33.517 2.400,33.517 1.034,32.150 C-0.333,30.783 -0.333,28.567 1.034,27.200 C1.034,27.200 5.963,22.781 11.541,17.495 C5.574,11.536 1.034,7.987 1.034,7.987 C-0.333,6.620 -0.333,4.404 1.034,3.037 C2.400,1.670 4.617,1.670 5.983,3.037 C5.983,3.037 10.030,6.084 14.940,10.994 C15.488,11.542 16.043,12.083 16.598,12.620 C17.153,12.075 17.702,11.532 18.240,10.994 C23.150,6.084 27.197,1.037 27.197,1.037 C28.563,-0.330 30.779,-0.330 32.146,1.037 C33.513,2.404 33.513,4.620 32.146,5.987 Z" class="cls-1"/>
</svg>
