<?xml version="1.0" encoding="utf-8"?>
<!-- Generator: Adobe Illustrator 22.1.0, SVG Export Plug-In . SVG Version: 6.00 Build 0)  -->
<svg version="1.1" id="Layer_1" xmlns="http://www.w3.org/2000/svg" xmlns:xlink="http://www.w3.org/1999/xlink" x="0px" y="0px"
	 viewBox="0 0 457 147" style="enable-background:new 0 0 457 147;" xml:space="preserve">
<style type="text/css">
	.st0{fill:#FFFFFF;}
	.st1{display:none;fill:#A6A6A6;}
	.st2{filter:url(#Adobe_OpacityMaskFilter);}
	.st3{filter:url(#Adobe_OpacityMaskFilter_1_);}
	.st4{mask:url(#SVGID_1_);fill:url(#SVGID_2_);}
	.st5{display:none;fill:url(#SVGID_3_);}
	.st6{display:none;}
	.st7{display:inline;fill:#FFFFFF;}
	.st8{display:inline;fill:#A6A6A6;}
	.st9{display:inline;}
	.st10{display:inline;filter:url(#Adobe_OpacityMaskFilter_2_);}
	.st11{filter:url(#Adobe_OpacityMaskFilter_3_);}
	.st12{mask:url(#SVGID_4_);fill:url(#SVGID_5_);}
	.st13{display:inline;fill:url(#SVGID_6_);}
</style>
<g>
	<path class="st0" d="M448.8,124c0.1,7.3-5.6,13.3-12.9,13.4L15.6,146c-7.3,0.1-13.3-5.6-13.4-12.9L0.1,28.4C0,21.2,5.7,15.2,13,15
		L443.3,0.4c7.3-0.1,13.3,5.6,13.4,12.9L448.8,124L448.8,124z"/>
	<path class="st1" d="M444.7,144.8H14.3c-8.9,0-16.2-7.3-16.2-16.2V23.8c0-8.9,7.3-16.2,16.2-16.2h430.4c8.9,0,16.2,7.3,16.2,16.2
		v104.8C460.9,137.5,453.6,144.8,444.7,144.8L444.7,144.8z"/>
	<path d="M448.8,124c0.1,7.3-5.6,13.3-12.9,13.4L15.6,146c-7.3,0.1-13.3-5.6-13.4-12.9L0.1,28.4C0,21.2,5.7,15.2,13,15L443.3,0.4
		c7.3-0.1,13.3,5.6,13.4,12.9L448.8,124L448.8,124z"/>
	<path class="st0" d="M101.4,78.1c-0.3-11.1,8.7-16.6,9.1-16.9c-5.3-7.5-13.4-8.3-16.2-8.3c-6.8-0.6-13.2,4.3-16.6,4.4
		c-3.5,0.1-8.9-3.8-14.6-3.6C55.8,53.9,49,58.3,45.4,65c-7.5,13.6-1.3,33.3,6.4,44c3.8,5.3,8.3,11.1,14,10.8
		c5.6-0.3,7.6-3.7,14.3-3.8c6.7-0.1,8.7,3.4,14.5,3.1c6-0.2,9.6-5.5,13.1-11c4.2-6.2,5.8-12.2,5.9-12.5
		C113.4,95.5,101.8,91.3,101.4,78.1z"/>
	<path class="st0" d="M89.8,45.8c2.9-3.8,4.9-9,4.2-14.1c-4.3,0.3-9.7,3.2-12.8,6.9c-2.7,3.3-5.1,8.6-4.3,13.6
		C81.8,52.4,86.7,49.5,89.8,45.8z"/>
	<defs>
		<filter id="Adobe_OpacityMaskFilter" filterUnits="userSpaceOnUse" x="214.1" y="7.6" width="246.8" height="137.2">
			<feFlood  style="flood-color:white;flood-opacity:1" result="back"/>
			<feBlend  in="SourceGraphic" in2="back" mode="normal"/>
		</filter>
	</defs>
	<mask maskUnits="userSpaceOnUse" x="214.1" y="7.6" width="246.8" height="137.2" id="SVGID_1_">
		<g class="st2">
			<defs>
				<filter id="Adobe_OpacityMaskFilter_1_" filterUnits="userSpaceOnUse" x="214.1" y="7.6" width="246.8" height="137.2">
					<feFlood  style="flood-color:white;flood-opacity:1" result="back"/>
					<feBlend  in="SourceGraphic" in2="back" mode="normal"/>
				</filter>
			</defs>
			<mask maskUnits="userSpaceOnUse" x="214.1" y="7.6" width="246.8" height="137.2" id="SVGID_1_">
				<g class="st3">
				</g>
			</mask>
			
				<linearGradient id="SVGID_2_" gradientUnits="userSpaceOnUse" x1="337.5036" y1="-141.1668" x2="337.5036" y2="-17.5232" gradientTransform="matrix(1 0 0 -1 0 4)">
				<stop  offset="0" style="stop-color:#1A1A1A"/>
				<stop  offset="0.1235" style="stop-color:#262626"/>
				<stop  offset="0.3085" style="stop-color:#3A3A3A"/>
				<stop  offset="0.5321" style="stop-color:#515151"/>
				<stop  offset="0.7834" style="stop-color:#6B6B6B"/>
				<stop  offset="1" style="stop-color:#828282"/>
			</linearGradient>
			<path class="st4" d="M444.7,7.6H214.1l90.3,137.2h140.2c8.9,0,16.2-7.3,16.2-16.2V23.8C460.9,14.9,453.6,7.6,444.7,7.6z"/>
		</g>
	</mask>
	
		<linearGradient id="SVGID_3_" gradientUnits="userSpaceOnUse" x1="337.5036" y1="-141.1668" x2="337.5036" y2="-17.5232" gradientTransform="matrix(1 0 0 -1 0 4)">
		<stop  offset="0" style="stop-color:#1A1A1A"/>
		<stop  offset="0.1235" style="stop-color:#212121"/>
		<stop  offset="0.3085" style="stop-color:#353535"/>
		<stop  offset="0.5321" style="stop-color:#575757"/>
		<stop  offset="0.7834" style="stop-color:#858585"/>
		<stop  offset="1" style="stop-color:#B3B3B3"/>
	</linearGradient>
	<path class="st5" d="M444.7,7.6H214.1l90.3,137.2h140.2c8.9,0,16.2-7.3,16.2-16.2V23.8C460.9,14.9,453.6,7.6,444.7,7.6z"/>
	<g>
		<path class="st0" d="M182.9,116.6l-7.8,0.2l-4.5-13.3l-14.8,0.3l-3.8,13.5l-7.6,0.2l13.8-45.9l9.1-0.2L182.9,116.6z M169.2,97.9
			L165.1,86c-0.4-1.2-1.3-4.1-2.5-8.6l-0.1,0c-0.4,1.9-1.1,4.8-2,8.6l-3.6,12L169.2,97.9z"/>
		<path class="st0" d="M220.3,99c0.1,5.6-1.3,10.1-4.3,13.4c-2.7,2.9-6,4.5-10.1,4.5c-4.4,0.1-7.5-1.4-9.5-4.5l0.3,17.3l-7.3,0.1
			l-0.7-35.4c-0.1-3.5-0.2-7.1-0.5-10.8l6.4-0.1l0.5,5.2l0.1,0c2.4-4,6-6,11-6.1c3.9-0.1,7.2,1.4,9.8,4.4
			C218.8,90,220.2,94,220.3,99z M212.9,99.4c-0.1-3.2-0.8-5.8-2.3-7.9c-1.6-2.1-3.8-3.2-6.4-3.1c-1.8,0-3.4,0.7-4.9,1.9
			c-1.4,1.2-2.4,2.8-2.8,4.8c-0.2,0.9-0.3,1.7-0.3,2.2l0.1,5.5c0,2.4,0.8,4.4,2.3,6c1.5,1.6,3.4,2.4,5.8,2.4
			c2.8-0.1,4.9-1.2,6.4-3.3C212.2,105.7,212.9,102.9,212.9,99.4z"/>
		<path class="st0" d="M258.2,98.3c0.1,5.6-1.3,10.1-4.3,13.4c-2.7,2.9-6,4.5-10.1,4.5c-4.4,0.1-7.5-1.4-9.5-4.5l0.3,17.3l-7.3,0.1
			l-0.7-35.4c-0.1-3.5-0.2-7.1-0.5-10.8l6.4-0.1l0.5,5.2l0.1,0c2.4-4,6-6,11-6.1c3.9-0.1,7.2,1.4,9.8,4.4
			C256.7,89.2,258.1,93.2,258.2,98.3z M250.7,98.7c-0.1-3.2-0.8-5.8-2.3-7.9c-1.6-2.1-3.8-3.2-6.4-3.1c-1.8,0-3.4,0.7-4.9,1.9
			c-1.4,1.2-2.4,2.8-2.8,4.8c-0.2,0.9-0.3,1.7-0.3,2.2l0.1,5.5c0,2.4,0.8,4.4,2.3,6c1.5,1.6,3.4,2.4,5.8,2.4
			c2.8-0.1,4.9-1.2,6.4-3.3C250.1,105,250.8,102.1,250.7,98.7z"/>
		<path class="st0" d="M300.6,101.5c0.1,3.9-1.2,7.1-3.9,9.6c-2.9,2.7-7,4.1-12.4,4.2c-4.9,0.1-8.9-0.8-11.9-2.6l1.6-6.1
			c3.2,1.8,6.8,2.7,10.6,2.6c2.8-0.1,4.9-0.7,6.4-2c1.5-1.3,2.2-2.9,2.2-5c0-1.9-0.7-3.4-2-4.6c-1.3-1.2-3.4-2.4-6.4-3.4
			c-8.1-2.8-12.1-7.1-12.3-12.8c-0.1-3.7,1.3-6.8,4-9.3c2.8-2.4,6.5-3.7,11.1-3.8c4.2-0.1,7.6,0.6,10.4,2l-1.7,6
			c-2.6-1.3-5.5-2-8.8-1.9c-2.6,0.1-4.6,0.7-6,2c-1.2,1.2-1.8,2.5-1.8,4.2c0,1.8,0.8,3.3,2.2,4.4c1.2,1.1,3.5,2.2,6.7,3.4
			c4,1.5,6.9,3.3,8.8,5.4C299.5,95.7,300.5,98.3,300.6,101.5z"/>
		<path class="st0" d="M324.5,86.4l-8.1,0.2l0.3,16c0.1,4.1,1.5,6.1,4.4,6c1.3,0,2.4-0.2,3.2-0.4l0.3,5.5c-1.4,0.6-3.3,0.9-5.7,0.9
			c-2.9,0.1-5.2-0.8-6.8-2.5c-1.7-1.7-2.5-4.7-2.6-8.8l-0.3-16.6l-4.8,0.1l-0.1-5.5l4.8-0.1l-0.1-6l7.1-2.3l0.2,8.2l8.1-0.2
			L324.5,86.4z"/>
		<path class="st0" d="M361,96.3c0.1,5.1-1.3,9.2-4.1,12.5c-3,3.4-6.9,5.2-11.9,5.3c-4.8,0.1-8.7-1.4-11.6-4.6
			c-2.9-3.1-4.4-7.2-4.5-12c-0.1-5.1,1.3-9.3,4.2-12.6c2.9-3.3,6.8-5,11.9-5.1c4.8-0.1,8.7,1.4,11.7,4.6
			C359.4,87.4,360.9,91.4,361,96.3z M353.4,96.6c-0.1-3-0.8-5.6-2.1-7.7c-1.6-2.6-3.8-3.8-6.6-3.8c-2.9,0.1-5.1,1.4-6.6,4.1
			c-1.3,2.2-1.9,4.8-1.8,7.9c0.1,3,0.8,5.6,2.1,7.7c1.6,2.6,3.9,3.8,6.7,3.8c2.8-0.1,5-1.4,6.5-4.1
			C352.9,102.3,353.5,99.7,353.4,96.6z"/>
		<path class="st0" d="M384.6,86.1c-0.7-0.1-1.5-0.2-2.3-0.2c-2.6,0.1-4.5,1.1-5.9,3c-1.2,1.7-1.7,3.9-1.7,6.5l0.3,17.3l-7.3,0.1
			l-0.5-22.5c-0.1-3.8-0.2-7.2-0.4-10.4l6.4-0.1l0.4,6.3l0.2,0c0.7-2.2,1.9-3.9,3.6-5.3c1.6-1.2,3.4-1.8,5.2-1.9
			c0.7,0,1.3,0,1.8,0.1L384.6,86.1L384.6,86.1z"/>
		<path class="st0" d="M417.5,93.9c0,1.3,0,2.4-0.2,3.3l-21.9,0.4c0.1,3.3,1.3,5.7,3.3,7.4c1.9,1.5,4.3,2.2,7.2,2.2
			c3.2-0.1,6.2-0.6,8.8-1.7l1.2,5.1c-3.1,1.4-6.7,2.2-11,2.3c-5.1,0.1-9.1-1.3-12.1-4.3c-3-2.9-4.5-6.9-4.6-12
			c-0.1-5,1.2-9.1,3.8-12.5c2.8-3.6,6.6-5.4,11.4-5.5c4.7-0.1,8.4,1.6,10.9,5.1C416.3,86.4,417.4,89.8,417.5,93.9z M410.5,92.1
			c0-2.2-0.5-4-1.5-5.6c-1.3-2-3.3-3-5.9-2.9c-2.4,0-4.3,1.1-5.8,3.1c-1.2,1.6-1.9,3.5-2,5.7L410.5,92.1L410.5,92.1z"/>
	</g>
	<g>
		<path class="st0" d="M163.7,32.6l0.4,19.2l2.1,0.1l-0.1,8.7l-3.1,0.1l-0.3-5.6l-13.6,0.3l-0.1,5.6l-3.1,0.1l-0.4-8.7l1.8-0.1
			c0.8-1.6,1.6-3.2,2.1-5c0.7-2.4,0.9-5.1,0.8-8.4l-0.1-5.9L163.7,32.6z M154,39.7c0.1,3.1-0.2,5.8-0.9,8.2c-0.4,1.5-1,2.9-1.6,4
			l8.6-0.2L159.7,36l-5.8,0.1L154,39.7z"/>
		<path class="st0" d="M186.5,46.3c0.1,6-4,8.7-8.1,8.8c-4.6,0.1-8.2-3-8.3-8.2c-0.1-5.3,3.3-8.7,8.2-8.8
			C183.1,38,186.4,41.4,186.5,46.3z M174.3,46.7c0.1,3.1,1.7,5.5,4.1,5.4c2.3,0,3.9-2.3,3.8-5.6c-0.1-2.5-1.2-5.4-4-5.4
			C175.3,41.2,174.2,44,174.3,46.7z"/>
		<path class="st0" d="M203.8,53.7c-0.9,0.4-2.5,0.9-4.6,0.9c-5.1,0.1-8.4-3.1-8.5-8.1c-0.1-4.9,3.2-8.7,8.8-8.8c1.5,0,3,0.3,4,0.7
			l-0.7,3.1c-0.7-0.3-1.6-0.6-3.1-0.6c-3.1,0.1-4.9,2.4-4.9,5.4c0.1,3.3,2.3,5.2,5.1,5.1c1.4,0,2.4-0.3,3.2-0.7L203.8,53.7z"/>
		<path class="st0" d="M220.3,37.7l0.1,3.2l-4.9,0.1l0.3,13l-4.1,0.1l-0.3-13l-4.9,0.1l-0.1-3.2L220.3,37.7z"/>
		<path class="st0" d="M227.4,37.5l3.1,8.6c0.4,1,0.7,2.2,1,3.1l0.1,0c0.2-0.9,0.5-2.1,0.8-3.2l2.4-8.7l4.4-0.1l-3.8,11.1
			c-2.1,6.1-3.6,8.8-5.4,10.5c-1.6,1.4-3.3,2-4.3,2.2l-1-3.4c0.7-0.2,1.5-0.6,2.3-1.2c0.8-0.5,1.7-1.5,2.2-2.6
			c0.2-0.3,0.2-0.5,0.2-0.7c0-0.2,0-0.4-0.2-0.8l-6.3-14.8L227.4,37.5L227.4,37.5z"/>
		<path class="st0" d="M257.5,36.9l0.3,16.2l-4.1,0.1l-0.3-13l-6.1,0.1l0.3,13l-4.1,0.1l-0.3-16.2L257.5,36.9z"/>
		<path class="st0" d="M267.8,36.7l0.1,6.2l6.3-0.1l-0.1-6.2l4.1-0.1l0.3,16.2l-4.1,0.1l-0.1-6.8l-6.3,0.1l0.1,6.8L264,53l-0.3-16.2
			L267.8,36.7z"/>
		<path class="st0" d="M299.9,44c0.1,6-4,8.7-8.1,8.8c-4.6,0.1-8.2-3-8.3-8.2c-0.1-5.3,3.3-8.7,8.2-8.8
			C296.5,35.8,299.8,39.1,299.9,44z M287.7,44.4c0.1,3.1,1.7,5.5,4.1,5.4c2.3,0,3.9-2.3,3.8-5.6c-0.1-2.5-1.2-5.4-4-5.4
			C288.8,38.9,287.7,41.7,287.7,44.4z"/>
		<path class="st0" d="M313.7,36c1.2-0.2,3.7-0.5,5.9-0.5c2.7-0.1,7.6,0.2,7.7,3.9c0,2.1-1.5,3.3-3.3,3.7l0,0.1
			c2.4,0.3,4.1,1.6,4.1,3.9c0.1,4.4-5.8,5-9,5.1c-2.1,0-4.2-0.1-5.2-0.1L313.7,36L313.7,36z M318,49.5c0.7,0.1,1.2,0,2,0
			c1.9,0,4.1-0.5,4.1-2.5c0-1.8-1.8-2.4-4.4-2.3l-1.7,0L318,49.5z M317.9,42.3l1.7,0c2.1,0,3.8-0.6,3.8-2.2c0-1.3-1.2-2-3.6-1.9
			c-0.8,0-1.4,0.1-2,0.2L317.9,42.3z"/>
	</g>
</g>
<g class="st6">
	<path class="st7" d="M457.8-56.2c0,7.3-5.9,13.1-13.2,13.1H14.3C7-43.1,1.1-49,1.1-56.2V-161c0-7.3,5.9-13.2,13.2-13.2h430.4
		c7.3,0,13.2,5.9,13.2,13.2L457.8-56.2L457.8-56.2z"/>
	<path class="st8" d="M444.7-40H14.3C5.3-40-2-47.3-2-56.2V-161c0-8.9,7.3-16.2,16.2-16.2h430.4c8.9,0,16.2,7.3,16.2,16.2v104.8
		C460.9-47.3,453.6-40,444.7-40L444.7-40z"/>
	<path class="st9" d="M457.8-56.2c0,7.3-5.9,13.1-13.2,13.1H14.3C7-43.1,1.1-49,1.1-56.2V-161c0-7.3,5.9-13.2,13.2-13.2h430.4
		c7.3,0,13.2,5.9,13.2,13.2L457.8-56.2L457.8-56.2z"/>
	<path class="st7" d="M101.4-109.3c-0.1-11.1,9.1-16.4,9.5-16.7c-5.2-7.6-13.2-8.6-16-8.7c-6.7-0.7-13.3,4-16.7,4
		c-3.5,0-8.8-4-14.5-3.9c-7.3,0.1-14.2,4.4-18,11c-7.8,13.5-2,33.2,5.5,44.1c3.7,5.3,8.1,11.3,13.8,11.1c5.6-0.2,7.7-3.6,14.4-3.6
		c6.7,0,8.6,3.6,14.4,3.4c6-0.1,9.8-5.3,13.3-10.7c4.3-6.1,6-12.1,6.1-12.4C113-91.7,101.5-96.1,101.4-109.3z"/>
	<path class="st7" d="M90.4-141.8c3-3.8,5-8.9,4.5-14c-4.3,0.2-9.8,3-12.9,6.7c-2.8,3.2-5.2,8.5-4.6,13.5
		C82.3-135.3,87.3-138.2,90.4-141.8z"/>
	<defs>
		<filter id="Adobe_OpacityMaskFilter_2_" filterUnits="userSpaceOnUse" x="214.1" y="-177.2" width="246.8" height="137.2">
			<feFlood  style="flood-color:white;flood-opacity:1" result="back"/>
			<feBlend  in="SourceGraphic" in2="back" mode="normal"/>
		</filter>
	</defs>
	<mask maskUnits="userSpaceOnUse" x="214.1" y="-177.2" width="246.8" height="137.2" id="SVGID_4_" class="st9">
		<g style="filter:url(#Adobe_OpacityMaskFilter_2_);">
			<defs>
				<filter id="Adobe_OpacityMaskFilter_3_" filterUnits="userSpaceOnUse" x="214.1" y="-177.2" width="246.8" height="137.2">
					<feFlood  style="flood-color:white;flood-opacity:1" result="back"/>
					<feBlend  in="SourceGraphic" in2="back" mode="normal"/>
				</filter>
			</defs>
			<mask maskUnits="userSpaceOnUse" x="214.1" y="-177.2" width="246.8" height="137.2" id="SVGID_4_">
				<g class="st11">
				</g>
			</mask>
			
				<linearGradient id="SVGID_5_" gradientUnits="userSpaceOnUse" x1="337.5036" y1="43.6569" x2="337.5036" y2="167.3018" gradientTransform="matrix(1 0 0 -1 0 4)">
				<stop  offset="0" style="stop-color:#1A1A1A"/>
				<stop  offset="0.1235" style="stop-color:#262626"/>
				<stop  offset="0.3085" style="stop-color:#3A3A3A"/>
				<stop  offset="0.5321" style="stop-color:#515151"/>
				<stop  offset="0.7834" style="stop-color:#6B6B6B"/>
				<stop  offset="1" style="stop-color:#828282"/>
			</linearGradient>
			<path class="st12" d="M444.7-177.2H214.1L304.4-40h140.2c8.9,0,16.2-7.3,16.2-16.2V-161C460.9-169.9,453.6-177.2,444.7-177.2z"/>
		</g>
	</mask>
	
		<linearGradient id="SVGID_6_" gradientUnits="userSpaceOnUse" x1="337.5036" y1="43.6569" x2="337.5036" y2="167.3018" gradientTransform="matrix(1 0 0 -1 0 4)">
		<stop  offset="0" style="stop-color:#1A1A1A"/>
		<stop  offset="0.1235" style="stop-color:#212121"/>
		<stop  offset="0.3085" style="stop-color:#353535"/>
		<stop  offset="0.5321" style="stop-color:#575757"/>
		<stop  offset="0.7834" style="stop-color:#858585"/>
		<stop  offset="1" style="stop-color:#B3B3B3"/>
	</linearGradient>
	<path class="st13" d="M444.7-177.2H214.1L304.4-40h140.2c8.9,0,16.2-7.3,16.2-16.2V-161C460.9-169.9,453.6-177.2,444.7-177.2z"/>
	<g class="st9">
		<path class="st0" d="M182.1-69.1h-7.8l-4.3-13.4h-14.8l-4.1,13.4h-7.6l14.7-45.6h9.1L182.1-69.1z M168.8-88.2l-3.9-11.9
			c-0.4-1.2-1.2-4.1-2.3-8.6h-0.1c-0.5,1.9-1.2,4.8-2.2,8.6l-3.8,11.9H168.8z"/>
		<path class="st0" d="M219.9-86c0,5.6-1.5,10-4.6,13.3c-2.7,2.9-6.1,4.3-10.1,4.3c-4.4,0-7.5-1.6-9.4-4.7v17.3h-7.3v-35.4
			c0-3.5-0.1-7.1-0.3-10.8h6.4l0.4,5.2h0.1c2.4-3.9,6.1-5.9,11.1-5.9c3.9,0,7.1,1.5,9.7,4.6C218.6-95,219.9-91,219.9-86z
			 M212.4-85.7c0-3.2-0.7-5.8-2.2-7.9c-1.6-2.2-3.7-3.2-6.4-3.2c-1.8,0-3.4,0.6-4.9,1.8c-1.5,1.2-2.4,2.8-2.9,4.7
			c-0.2,0.9-0.3,1.6-0.3,2.2v5.5c0,2.4,0.7,4.4,2.2,6.1c1.5,1.6,3.4,2.5,5.7,2.5c2.8,0,4.9-1.1,6.4-3.2
			C211.6-79.5,212.4-82.3,212.4-85.7z"/>
		<path class="st0" d="M257.7-86c0,5.6-1.5,10-4.6,13.3c-2.7,2.9-6.1,4.3-10.1,4.3c-4.4,0-7.5-1.6-9.4-4.7v17.3h-7.3v-35.4
			c0-3.5-0.1-7.1-0.3-10.8h6.4l0.4,5.2h0.1c2.4-3.9,6.1-5.9,11.1-5.9c3.9,0,7.1,1.5,9.7,4.6C256.4-95,257.7-91,257.7-86z
			 M250.3-85.7c0-3.2-0.7-5.8-2.2-7.9c-1.6-2.2-3.7-3.2-6.4-3.2c-1.8,0-3.4,0.6-4.9,1.8c-1.5,1.2-2.4,2.8-2.9,4.7
			c-0.2,0.9-0.3,1.6-0.3,2.2v5.5c0,2.4,0.7,4.4,2.2,6.1c1.5,1.6,3.4,2.5,5.7,2.5c2.8,0,4.9-1.1,6.4-3.2
			C249.5-79.5,250.3-82.3,250.3-85.7z"/>
		<path class="st0" d="M300-81.9c0,3.9-1.4,7-4.1,9.5c-3,2.7-7.1,4-12.4,4c-4.9,0-8.8-0.9-11.8-2.8l1.7-6.1
			c3.2,1.9,6.7,2.8,10.6,2.8c2.8,0,4.9-0.6,6.4-1.9c1.5-1.2,2.3-2.9,2.3-5c0-1.9-0.6-3.4-1.9-4.7c-1.3-1.3-3.4-2.4-6.3-3.5
			c-8-3-12-7.3-12-13.1c0-3.7,1.4-6.8,4.2-9.2c2.8-2.4,6.6-3.6,11.2-3.6c4.2,0,7.6,0.7,10.4,2.2l-1.8,6c-2.6-1.4-5.5-2.1-8.8-2.1
			c-2.6,0-4.6,0.6-6,1.9c-1.2,1.1-1.8,2.5-1.8,4.1c0,1.8,0.7,3.3,2.1,4.5c1.2,1.1,3.4,2.3,6.6,3.5c3.9,1.6,6.8,3.4,8.7,5.6
			C299.1-87.7,300-85.1,300-81.9z"/>
		<path class="st0" d="M324.3-96.6h-8.1v16c0,4.1,1.4,6.1,4.3,6.1c1.3,0,2.4-0.1,3.3-0.3l0.2,5.6c-1.4,0.5-3.3,0.8-5.7,0.8
			c-2.9,0-5.1-0.9-6.8-2.6c-1.6-1.8-2.4-4.7-2.4-8.9v-16.6h-4.8v-5.5h4.8v-6l7.2-2.2v8.2h8.1V-96.6z"/>
		<path class="st0" d="M360.6-85.9c0,5.1-1.4,9.2-4.3,12.5c-3,3.3-7,5-12.1,5c-4.8,0-8.7-1.6-11.5-4.8c-2.9-3.2-4.3-7.2-4.3-12.1
			c0-5.1,1.5-9.3,4.4-12.5c3-3.3,6.9-4.9,12-4.9c4.8,0,8.7,1.6,11.6,4.8C359.2-94.8,360.6-90.8,360.6-85.9z M353-85.7
			c0-3-0.7-5.6-2-7.8c-1.5-2.6-3.7-3.9-6.6-3.9c-2.9,0-5.2,1.3-6.7,3.9c-1.3,2.2-2,4.8-2,7.9c0,3,0.7,5.6,2,7.8
			c1.6,2.6,3.8,3.9,6.6,3.9c2.8,0,5-1.3,6.6-4C352.3-80.1,353-82.7,353-85.7z"/>
		<path class="st0" d="M384.4-95.6c-0.7-0.1-1.5-0.2-2.3-0.2c-2.6,0-4.6,1-6,2.9c-1.2,1.7-1.8,3.9-1.8,6.5v17.3H367v-22.6
			c0-3.8-0.1-7.2-0.2-10.4h6.4l0.3,6.3h0.2c0.8-2.2,2-3.9,3.7-5.2c1.6-1.2,3.4-1.8,5.3-1.8c0.7,0,1.3,0,1.8,0.1L384.4-95.6
			L384.4-95.6z"/>
		<path class="st0" d="M417.1-87.2c0,1.3-0.1,2.4-0.3,3.3h-21.9c0.1,3.3,1.1,5.7,3.2,7.5c1.8,1.5,4.2,2.3,7.2,2.3
			c3.3,0,6.2-0.5,8.9-1.6l1.1,5.1c-3.1,1.4-6.8,2-11,2c-5.1,0-9.1-1.5-12-4.5c-2.9-3-4.4-7-4.4-12.1c0-5,1.4-9.1,4.1-12.4
			c2.8-3.5,6.7-5.3,11.5-5.3c4.7,0,8.3,1.8,10.8,5.3C416.1-94.7,417.1-91.3,417.1-87.2z M410.1-89c0.1-2.2-0.4-4-1.4-5.6
			c-1.3-2-3.2-3.1-5.8-3.1c-2.4,0-4.3,1-5.8,3c-1.2,1.6-1.9,3.5-2.2,5.7L410.1-89L410.1-89z"/>
	</g>
	<g class="st9">
		<g>
			<path class="st0" d="M147-152.2c1.5-1,3.7-1.8,6.5-1.8c4.5,0,7.3,2.3,7.3,5.6c0,2.8-1.9,4.8-4.6,5.4v0.1c3,0.4,5.3,2.4,5.4,5.5
				c0,4.9-4.6,6.7-8.7,6.7c-2.2,0-4.5-0.5-6.4-1.5l0.9-3.2c1.1,0.6,3.3,1.4,5.3,1.4c2.9,0,4.6-1.4,4.6-3.6c0-2.9-2.9-3.6-5.4-3.6
				h-1.8v-3.1h1.8c2.6,0,4.6-1.4,4.6-3.4c0-1.8-1.4-2.9-3.7-2.9c-1.7,0-3.6,0.7-4.8,1.4L147-152.2z"/>
			<path class="st0" d="M179.4-135c0,1.5,0.1,2.9,0.3,3.9H176l-0.3-1.8h-0.1c-1,1.3-2.7,2.2-4.8,2.2c-3.3,0-5.1-2.4-5.1-4.8
				c0-4.1,3.6-6.2,9.6-6.1v-0.3c0-1.1-0.4-2.8-3.3-2.8c-1.6,0-3.3,0.5-4.4,1.2l-0.8-2.7c1.2-0.7,3.3-1.4,5.9-1.4
				c5.2,0,6.7,3.3,6.7,6.9L179.4-135L179.4-135z M175.4-139c-2.9,0-5.7,0.6-5.7,3c0,1.6,1,2.3,2.3,2.3c1.7,0,2.8-1.1,3.2-2.2
				c0.1-0.3,0.1-0.6,0.1-0.9V-139z"/>
			<path class="st0" d="M196.3-147.3v3.2h-6.6v13h-4.1v-16.2H196.3z"/>
			<path class="st0" d="M200.8-141.9c0-2.1-0.1-3.9-0.1-5.4h3.6l0.2,2.5h0.1c1.2-1.8,3.1-2.9,5.6-2.9c3.7,0,6.8,3.2,6.8,8.3
				c0,5.9-3.7,8.7-7.4,8.7c-2,0-3.7-0.9-4.6-2.2h-0.1v8.4h-4.1L200.8-141.9L200.8-141.9z M204.9-137.9c0,0.4,0,0.8,0.1,1.1
				c0.4,1.7,1.9,2.9,3.6,2.9c2.6,0,4.1-2.2,4.1-5.4c0-2.9-1.4-5.2-4-5.2c-1.7,0-3.3,1.2-3.7,3c-0.1,0.3-0.1,0.7-0.1,1V-137.9z"/>
			<path class="st0" d="M224.8-147.3l2.9,8.7c0.3,1,0.7,2.2,0.9,3.1h0.1c0.2-0.9,0.5-2.1,0.9-3.2l2.5-8.7h4.4l-4.1,11.1
				c-2.2,6.1-3.7,8.8-5.6,10.4c-1.6,1.4-3.3,1.9-4.3,2.1l-0.9-3.4c0.7-0.2,1.5-0.5,2.4-1.1c0.8-0.5,1.7-1.5,2.3-2.6
				c0.2-0.3,0.2-0.5,0.2-0.7c0-0.2,0-0.4-0.2-0.8l-6-14.9H224.8L224.8-147.3z"/>
			<path class="st0" d="M242.2-140.8h1.9c2.3,0,3.6-0.9,3.6-2.1c0-1.2-1.1-1.9-2.9-1.9c-1.4,0-2.9,0.5-4,1.1l-0.9-2.4
				c1.8-1.1,4-1.6,6.1-1.6c2.8,0,6.1,1.1,6.1,4.3c0,2.1-1.9,3.3-3.6,3.6v0.1c2.2,0.2,4.3,1.5,4.3,3.9c0,3.8-4.2,4.9-7.6,4.9
				c-2.1,0-4.3-0.5-5.9-1.4l0.9-2.6c1.1,0.6,2.9,1.1,4.5,1.1c2.3,0,3.5-1,3.5-2.2c0-1.7-1.8-2.3-4.1-2.3h-2L242.2-140.8L242.2-140.8
				z"/>
			<path class="st0" d="M261.8-147.3v5.8c0,2.6-0.1,4.3-0.2,6.6h0.1c0.9-1.9,1.3-3.1,2.2-4.8l4-7.6h5v16.2h-3.9v-5.8
				c0-2.6,0.1-3.8,0.3-6.9H269c-0.8,1.9-1.3,3.1-2.1,4.7c-1.2,2.4-2.7,5.3-4.1,8h-4.9v-16.2H261.8z"/>
			<path class="st0" d="M291-147.3v3.2h-4.9v13h-4.1v-13h-4.9v-3.2H291z"/>
			<path class="st0" d="M298.3-138.1c0.1,2.9,2.4,4.2,5,4.2c1.9,0,3.2-0.3,4.5-0.7l0.6,2.8c-1.4,0.6-3.3,1-5.7,1
				c-5.3,0-8.4-3.2-8.4-8.2c0-4.5,2.7-8.7,7.9-8.7c5.3,0,7,4.3,7,7.9c0,0.8-0.1,1.4-0.1,1.7H298.3z M305.5-140.9c0-1.5-0.6-4-3.4-4
				c-2.5,0-3.6,2.3-3.8,4H305.5z"/>
			<path class="st0" d="M323.2-147.1c1.2-0.2,3.7-0.4,5.9-0.4c2.7,0,7.6,0.4,7.6,4.1c0,2.1-1.6,3.2-3.3,3.6v0.1
				c2.4,0.4,4.1,1.7,4.1,4c0,4.4-5.9,4.9-9.1,4.9c-2.1,0-4.2-0.2-5.2-0.2L323.2-147.1L323.2-147.1z M327.2-133.6
				c0.7,0.1,1.2,0.1,2,0.1c1.9,0,4.1-0.5,4.1-2.4c0-1.8-1.8-2.4-4.4-2.4h-1.7V-133.6z M327.2-140.8h1.7c2.1,0,3.8-0.6,3.8-2.1
				c0-1.3-1.1-2-3.5-2c-0.8,0-1.4,0.1-2,0.1V-140.8z"/>
		</g>
	</g>
</g>
</svg>
