<?xml version="1.0" encoding="utf-8"?>
<!-- Generator: Adobe Illustrator 22.1.0, SVG Export Plug-In . SVG Version: 6.00 Build 0)  -->
<svg version="1.1" id="artwork" xmlns="http://www.w3.org/2000/svg" xmlns:xlink="http://www.w3.org/1999/xlink" x="0px" y="0px"
	 viewBox="0 0 138.2 45.5" style="enable-background:new 0 0 138.2 45.5;" xml:space="preserve">
<style type="text/css">
	.st0{fill:#FFFFFF;fill-opacity:0;}
	.st1{display:none;}
	.st2{display:inline;}
	.st3{fill:#A6A6A6;}
	.st4{fill:#FFFFFF;}
	.st5{fill:url(#SVGID_1_);}
	.st6{fill:url(#SVGID_2_);}
	.st7{fill:url(#SVGID_3_);}
	.st8{fill:url(#SVGID_4_);}
	.st9{opacity:0.2;enable-background:new    ;}
	.st10{opacity:0.12;enable-background:new    ;}
	.st11{opacity:0.25;fill:#FFFFFF;enable-background:new    ;}
	.st12{fill:#FFFFFF;stroke:#FFFFFF;stroke-width:0.2;stroke-miterlimit:10;}
</style>
<g>
	<polygon class="st0" points="146,52.8 -9,55.8 -7.2,-7.2 147.8,-10.2 	"/>
	<g>
		<path d="M130.8,43l-125,2.5c-2.7,0.1-5-2.2-5.1-4.9l-0.6-30C0.1,7.9,2.3,5.6,5,5.5l128-5.5c2.7-0.1,5,2.2,5.1,4.9l-2.4,33
			C135.7,40.7,133.5,43,130.8,43z"/>
	</g>
	<g class="st1">
		<g class="st2">
			<path class="st3" d="M130.4,5.1c2.3,0,4.2,1.9,4.2,4.2v30c0,2.3-1.9,4.2-4.2,4.2H5.4c-2.3,0-4.2-1.9-4.2-4.2v-30
				c0-2.3,1.9-4.2,4.2-4.2H130.4 M130.4,4.3H5.4c-2.8,0-5,2.3-5,5v30c0,2.8,2.3,5,5,5h125c2.8,0,5-2.3,5-5v-30
				C135.4,6.5,133.1,4.3,130.4,4.3L130.4,4.3z"/>
		</g>
	</g>
	<path class="st4" d="M68.6,26c-2.4,0-4.2,1.9-4.2,4.3c0,2.4,2,4.2,4.4,4.2c2.4,0,4.2-1.9,4.2-4.3C72.9,27.7,70.9,26,68.6,26z
		 M68.7,32.8c-1.3,0-2.4-1-2.5-2.5c0-1.5,1.1-2.6,2.3-2.6c1.3,0,2.4,1,2.5,2.5C71.1,31.7,70,32.8,68.7,32.8z M59.2,26.2
		c-2.4,0-4.2,1.9-4.2,4.3c0,2.4,2,4.2,4.4,4.2c2.4,0,4.2-1.9,4.2-4.3C63.6,27.9,61.6,26.2,59.2,26.2z M59.4,33c-1.3,0-2.4-1-2.5-2.5
		c0-1.5,1.1-2.6,2.3-2.6c1.3,0,2.4,1,2.5,2.5C61.8,31.9,60.7,33,59.4,33z M48.2,27.7l0,1.8l4.3-0.1c-0.1,1-0.4,1.8-0.9,2.3
		c-0.6,0.6-1.6,1.4-3.3,1.4c-2.7,0.1-4.8-2-4.8-4.7s2-4.8,4.6-4.9c1.4,0,2.5,0.5,3.3,1.2l1.2-1.3c-1.1-1-2.5-1.8-4.6-1.7
		c-3.6,0.1-6.6,3.1-6.6,6.7c0.1,3.6,3.2,6.5,6.8,6.5c2,0,3.4-0.7,4.6-1.9c1.2-1.2,1.5-2.9,1.5-4.3c0-0.4,0-0.8-0.1-1.1L48.2,27.7z
		 M93.5,28.2c-0.4-0.9-1.5-2.7-3.7-2.6c-2.2,0-4,1.8-3.9,4.3c0,2.4,1.9,4.2,4.3,4.2c1.9,0,3.1-1.3,3.5-2l-1.5-0.9
		c-0.5,0.7-1.1,1.2-2.1,1.2c-1,0-1.6-0.4-2.1-1.2l5.6-2.5L93.5,28.2z M87.8,29.8c-0.1-1.6,1.2-2.5,2.2-2.5c0.7,0,1.4,0.3,1.6,0.9
		L87.8,29.8z M83.2,34l1.9,0l-0.2-12.5l-1.9,0L83.2,34z M80,26.7L80,26.7c-0.5-0.5-1.3-0.9-2.3-0.9c-2.1,0-4,1.9-4,4.3
		c0,2.4,2,4.2,4.2,4.2c1,0,1.8-0.5,2.2-1l0.1,0l0,0.6c0,1.6-0.8,2.5-2.2,2.5c-1.1,0-1.9-0.8-2.2-1.5l-1.6,0.7
		c0.5,1.1,1.8,2.5,3.8,2.4c2.2,0,4-1.4,4-4.5L81.8,26l-1.8,0L80,26.7z M78,32.7c-1.3,0-2.4-1-2.4-2.5c0-1.5,1-2.6,2.3-2.6
		c1.3,0,2.3,1.1,2.3,2.5C80.2,31.5,79.3,32.6,78,32.7z M102.1,21.1l-4.5,0.1l0.2,12.5l1.9,0l-0.1-4.7l2.6-0.1c2.1,0,4.1-1.6,4-4
		S104.2,21.1,102.1,21.1z M102.3,27.1l-2.7,0.1l-0.1-4.3l2.7-0.1c1.4,0,2.2,1.1,2.2,2.1C104.5,25.9,103.7,27.1,102.3,27.1z
		 M113.8,25.1c-1.4,0-2.7,0.6-3.3,2l1.7,0.7c0.3-0.7,1-0.9,1.7-1c1,0,2,0.5,2,1.6l0,0.1c-0.3-0.2-1.1-0.5-2-0.4
		c-1.8,0-3.6,1.1-3.5,2.9c0,1.7,1.5,2.7,3.2,2.7c1.3,0,1.9-0.6,2.4-1.3l0.1,0l0,1l1.8,0l-0.1-4.8C117.6,26.3,115.9,25.1,113.8,25.1z
		 M113.7,32c-0.6,0-1.5-0.3-1.5-1c0-1,1-1.4,2-1.4c0.8,0,1.2,0.2,1.7,0.4C115.8,31.1,114.8,31.9,113.7,32z M124.2,25.2l-2,5.5
		l-0.1,0l-2.3-5.4l-2,0l3.5,7.5l-1.8,4.3l1.9,0l4.9-11.9L124.2,25.2z M107.5,33.5l1.9,0L109.1,21l-1.9,0L107.5,33.5z"/>
	<g>
		
			<linearGradient id="SVGID_1_" gradientUnits="userSpaceOnUse" x1="22.188" y1="177.5687" x2="5.4056" y2="160.7863" gradientTransform="matrix(0.9998 -1.960137e-02 -1.960137e-02 -0.9998 3.2723 191.8556)">
			<stop  offset="0" style="stop-color:#00A0FF"/>
			<stop  offset="6.574450e-03" style="stop-color:#00A1FF"/>
			<stop  offset="0.2601" style="stop-color:#00BEFF"/>
			<stop  offset="0.5122" style="stop-color:#00D2FF"/>
			<stop  offset="0.7604" style="stop-color:#00DFFF"/>
			<stop  offset="1" style="stop-color:#00E3FF"/>
		</linearGradient>
		<path class="st5" d="M10.6,12.9c-0.3,0.3-0.4,0.8-0.4,1.4l0.4,22.1c0,0.6,0.2,1.1,0.5,1.4l0.1,0.1l12.1-12.6l0-0.1l0-0.1
			L10.6,12.9L10.6,12.9z"/>
		
			<linearGradient id="SVGID_2_" gradientUnits="userSpaceOnUse" x1="34.2226" y1="166.277" x2="10.0257" y2="166.277" gradientTransform="matrix(0.9998 -1.960137e-02 -1.960137e-02 -0.9998 3.2723 191.8556)">
			<stop  offset="0" style="stop-color:#FFE000"/>
			<stop  offset="0.4087" style="stop-color:#FFBD00"/>
			<stop  offset="0.7754" style="stop-color:#FFA500"/>
			<stop  offset="1" style="stop-color:#FF9C00"/>
		</linearGradient>
		<path class="st6" d="M27.5,29.3l-4.2-4l0-0.1l0-0.1l4-4.2l0.1,0.1l4.9,2.7c1.4,0.8,1.4,2.1,0.1,2.9L27.5,29.3L27.5,29.3z"/>
		
			<linearGradient id="SVGID_3_" gradientUnits="userSpaceOnUse" x1="25.2152" y1="163.9823" x2="2.4569" y2="141.2241" gradientTransform="matrix(0.9998 -1.960137e-02 -1.960137e-02 -0.9998 3.2723 191.8556)">
			<stop  offset="0" style="stop-color:#FF3A44"/>
			<stop  offset="1" style="stop-color:#C31162"/>
		</linearGradient>
		<path class="st7" d="M27.6,29.3l-4.3-4.1L11.1,37.9c0.5,0.5,1.2,0.5,2.1,0L27.6,29.3"/>
		
			<linearGradient id="SVGID_4_" gradientUnits="userSpaceOnUse" x1="7.6856" y1="186.1022" x2="17.8481" y2="175.9397" gradientTransform="matrix(0.9998 -1.960137e-02 -1.960137e-02 -0.9998 3.2723 191.8556)">
			<stop  offset="0" style="stop-color:#32A071"/>
			<stop  offset="6.850000e-02" style="stop-color:#2DA771"/>
			<stop  offset="0.4762" style="stop-color:#15CF74"/>
			<stop  offset="0.8009" style="stop-color:#06E775"/>
			<stop  offset="1" style="stop-color:#00F076"/>
		</linearGradient>
		<path class="st8" d="M27.4,20.8l-14.8-8c-0.9-0.5-1.6-0.4-2.1,0.1l12.7,12.2L27.4,20.8z"/>
		<g>
			<path class="st9" d="M27.5,29.2l-14.4,8.5c-0.8,0.5-1.5,0.5-2,0l0,0l-0.1,0.1l0,0l0.1,0.1l0,0c0.5,0.4,1.2,0.4,2,0L27.5,29.2
				L27.5,29.2z"/>
			<path class="st10" d="M11.1,37.7c-0.3-0.3-0.5-0.8-0.5-1.4l0,0.1c0,0.6,0.2,1.1,0.5,1.4L11.1,37.7L11.1,37.7z"/>
		</g>
		<path class="st10" d="M32.4,26.3l-4.9,2.9l0.1,0.1l4.8-2.9c0.7-0.4,1-0.9,1-1.5l0,0C33.4,25.4,33.1,25.9,32.4,26.3z"/>
		<path class="st11" d="M12.7,13l19.7,10.7c0.6,0.3,1,0.8,1.1,1.3l0,0c0-0.5-0.4-1-1.1-1.4L12.7,12.8c-1.4-0.8-2.5-0.1-2.5,1.5
			l0,0.1C10.1,12.9,11.3,12.2,12.7,13z"/>
	</g>
</g>
<g>
	<path class="st12" d="M42.4,19.1l-0.7,0l0-2l0.6,0c0.5-0.5,0.7-1.2,0.7-2.3l-0.1-3l4-0.1l0.1,5.3l0.7,0l0,2l-0.7,0l0-1.3l-4.5,0.1
		L42.4,19.1z M43.7,14.7c0,0.9-0.1,1.7-0.5,2.3l3-0.1l-0.1-4.5l-2.5,0L43.7,14.7z"/>
	<path class="st12" d="M53.7,16.8c-0.6,0.6-1.3,0.9-2.2,1c-0.9,0-1.6-0.3-2.2-0.9c-0.6-0.6-0.9-1.3-0.9-2.2c0-0.9,0.3-1.6,0.8-2.2
		c0.6-0.6,1.3-0.9,2.2-1c0.9,0,1.6,0.3,2.2,0.9c0.6,0.6,0.9,1.3,0.9,2.2C54.5,15.4,54.2,16.2,53.7,16.8z M49.8,16.4
		c0.5,0.4,1,0.7,1.6,0.6c0.6,0,1.2-0.2,1.6-0.7c0.4-0.5,0.6-1,0.6-1.7c0-0.7-0.2-1.3-0.7-1.7c-0.5-0.4-1-0.7-1.6-0.6
		c-0.6,0-1.2,0.2-1.6,0.7c-0.4,0.5-0.6,1-0.6,1.7C49.1,15.3,49.4,15.9,49.8,16.4z"/>
	<path class="st12" d="M58.4,17.6c-0.9,0-1.6-0.3-2.2-0.9c-0.6-0.6-0.9-1.3-0.9-2.2c0-0.9,0.3-1.6,0.9-2.3c0.6-0.6,1.3-0.9,2.2-0.9
		c0.9,0,1.6,0.3,2.2,0.9L60,12.8c-0.4-0.5-1-0.7-1.7-0.7c-0.7,0-1.2,0.2-1.6,0.7c-0.4,0.5-0.7,1-0.6,1.7s0.2,1.3,0.7,1.7
		c0.5,0.4,1,0.6,1.7,0.6c0.7,0,1.3-0.3,1.8-0.9l0.5,0.5c-0.3,0.3-0.6,0.6-1,0.8C59.4,17.5,58.9,17.6,58.4,17.6z"/>
	<path class="st12" d="M63.9,17.4l-0.8,0l-0.1-5.3l-1.7,0l0-0.7l4.1-0.1l0,0.7l-1.7,0L63.9,17.4z"/>
	<path class="st12" d="M70.8,11.2l-2.2,5.1c-0.3,0.7-0.8,1.1-1.4,1.1c-0.2,0-0.4,0-0.6-0.1l0.2-0.7c0.1,0.1,0.3,0.1,0.4,0.1
		c0.2,0,0.3,0,0.4-0.1c0.1-0.1,0.2-0.2,0.3-0.4l0.2-0.5L66,11.3l0.9,0l1.6,3.4l0,0l1.4-3.5L70.8,11.2z"/>
	<path class="st12" d="M71.8,17.2l-0.1-6l4.3-0.1l0.1,6l-0.8,0l-0.1-5.3l-2.8,0.1l0.1,5.3L71.8,17.2z"/>
	<path class="st12" d="M77.5,17.1l-0.1-6l0.8,0l0.1,2.6l3-0.1L81.1,11l0.8,0l0.1,6l-0.8,0l-0.1-2.7l-3,0.1l0.1,2.7L77.5,17.1z"/>
	<path class="st12" d="M88.3,16.1c-0.6,0.6-1.3,0.9-2.2,1c-0.9,0-1.6-0.3-2.2-0.9C83.3,15.6,83,14.9,83,14c0-0.9,0.3-1.6,0.8-2.2
		c0.6-0.6,1.3-0.9,2.2-1c0.9,0,1.6,0.3,2.2,0.9c0.6,0.6,0.9,1.3,0.9,2.2C89.1,14.7,88.9,15.5,88.3,16.1z M84.5,15.7
		c0.5,0.4,1,0.7,1.6,0.6c0.6,0,1.2-0.2,1.6-0.7c0.4-0.5,0.6-1,0.6-1.7s-0.2-1.3-0.7-1.7c-0.5-0.4-1-0.7-1.6-0.6
		c-0.6,0-1.2,0.2-1.6,0.7c-0.4,0.5-0.6,1-0.6,1.7C83.8,14.7,84,15.2,84.5,15.7z"/>
	<path class="st12" d="M92.3,16.8l-0.1-6l2.2,0c0.5,0,0.9,0.1,1.2,0.4c0.3,0.3,0.5,0.7,0.5,1.2c0,0.3-0.1,0.5-0.2,0.8
		c-0.1,0.2-0.3,0.4-0.6,0.5l0,0c0.3,0.1,0.5,0.3,0.7,0.5c0.2,0.2,0.3,0.5,0.3,0.8c0,0.5-0.2,0.9-0.5,1.2c-0.4,0.3-0.8,0.5-1.3,0.5
		L92.3,16.8z M93,13.4l1.4,0c0.3,0,0.5-0.1,0.7-0.3c0.2-0.2,0.3-0.4,0.3-0.6s-0.1-0.4-0.3-0.6c-0.2-0.2-0.4-0.3-0.7-0.3l-1.4,0
		L93,13.4z M93.1,16l1.6,0c0.3,0,0.5-0.1,0.7-0.3c0.2-0.2,0.3-0.4,0.3-0.7c0-0.2-0.1-0.5-0.3-0.7c-0.2-0.2-0.4-0.3-0.8-0.3l-1.5,0
		L93.1,16z"/>
</g>
</svg>
