<svg xmlns="http://www.w3.org/2000/svg" xmlns:xlink="http://www.w3.org/1999/xlink" preserveAspectRatio="xMidYMid" width="338" height="143" viewBox="0 0 338 143">
  <defs>
    <style>
      .cls-1 {
        fill: #e81a22;
        filter: url(#drop-shadow-1);
        fill-rule: evenodd;
      }
    </style>

    <filter id="drop-shadow-1" filterUnits="userSpaceOnUse">
      <feOffset dx="0.523" dy="9.986" in="SourceAlpha"/>
      <feGaussianBlur stdDeviation="6.164" result="dropBlur"/>
      <feFlood flood-color="#aa393e" flood-opacity="0.53"/>
      <feComposite operator="in" in2="dropBlur" result="dropShadowComp"/>
      <feComposite in="SourceGraphic" result="shadowed"/>
    </filter>
  </defs>
  <path d="M63.031,39.953 C63.031,39.953 75.038,37.953 93.364,37.953 C110.419,37.953 132.948,40.120 156.364,40.357 C169.805,40.493 185.539,38.544 198.698,38.542 C241.972,38.534 293.031,38.953 293.031,38.953 C295.792,38.953 298.031,41.191 298.031,43.953 C298.031,43.953 300.031,51.298 300.031,60.619 C300.031,76.806 298.031,98.953 298.031,98.953 C298.031,101.714 295.792,103.953 293.031,103.953 C293.031,103.953 261.146,103.953 238.031,103.953 C227.027,103.953 214.384,104.985 201.036,105.037 C183.980,105.104 165.773,103.127 148.364,103.126 C132.969,103.125 118.198,104.335 105.400,104.612 C99.209,104.747 97.479,104.893 92.364,104.893 C84.545,104.893 83.538,104.941 81.360,104.956 C79.194,104.970 76.523,104.984 71.363,104.984 C63.584,104.984 63.031,104.953 63.031,104.953 C60.269,104.953 58.031,97.714 58.031,94.953 C58.031,94.953 50.486,86.747 38.031,86.953 C36.742,86.974 56.716,77.763 56.549,74.666 C56.253,69.187 56.031,68.297 56.031,62.953 C56.031,53.008 58.031,44.953 58.031,44.953 C58.031,42.191 60.269,39.953 63.031,39.953 Z" class="cls-1"/>
</svg>
