<svg xmlns="http://www.w3.org/2000/svg" xmlns:xlink="http://www.w3.org/1999/xlink" preserveAspectRatio="xMidYMid" width="381" height="3" viewBox="0 0 381 3">
  <defs>
    <style>
      .cls-1 {
        fill: #e81a22;
        fill-rule: evenodd;
      }
    </style>
  </defs>
  <path d="M379.500,3.000 L377.500,3.000 C376.672,3.000 376.000,2.328 376.000,1.500 C376.000,0.672 376.672,-0.000 377.500,-0.000 L379.500,-0.000 C380.328,-0.000 381.000,0.672 381.000,1.500 C381.000,2.328 380.328,3.000 379.500,3.000 ZM369.500,3.000 C368.672,3.000 368.000,2.328 368.000,1.500 C368.000,0.672 368.672,-0.000 369.500,-0.000 L371.500,-0.000 C372.328,-0.000 373.000,0.672 373.000,1.500 C373.000,2.328 372.328,3.000 371.500,3.000 L369.500,3.000 ZM361.500,3.000 C360.672,3.000 360.000,2.328 360.000,1.500 C360.000,0.672 360.672,-0.000 361.500,-0.000 L363.500,-0.000 C364.328,-0.000 365.000,0.672 365.000,1.500 C365.000,2.328 364.328,3.000 363.500,3.000 L361.500,3.000 ZM353.500,3.000 C352.672,3.000 352.000,2.328 352.000,1.500 C352.000,0.672 352.672,-0.000 353.500,-0.000 L355.500,-0.000 C356.328,-0.000 357.000,0.672 357.000,1.500 C357.000,2.328 356.328,3.000 355.500,3.000 L353.500,3.000 ZM345.500,3.000 C344.672,3.000 344.000,2.328 344.000,1.500 C344.000,0.672 344.672,-0.000 345.500,-0.000 L347.500,-0.000 C348.328,-0.000 349.000,0.672 349.000,1.500 C349.000,2.328 348.328,3.000 347.500,3.000 L345.500,3.000 ZM337.500,3.000 C336.672,3.000 336.000,2.328 336.000,1.500 C336.000,0.672 336.672,-0.000 337.500,-0.000 L339.500,-0.000 C340.328,-0.000 341.000,0.672 341.000,1.500 C341.000,2.328 340.328,3.000 339.500,3.000 L337.500,3.000 ZM329.500,3.000 C328.672,3.000 328.000,2.328 328.000,1.500 C328.000,0.672 328.672,-0.000 329.500,-0.000 L331.500,-0.000 C332.328,-0.000 333.000,0.672 333.000,1.500 C333.000,2.328 332.328,3.000 331.500,3.000 L329.500,3.000 ZM321.500,3.000 C320.672,3.000 320.000,2.328 320.000,1.500 C320.000,0.672 320.672,-0.000 321.500,-0.000 L323.500,-0.000 C324.328,-0.000 325.000,0.672 325.000,1.500 C325.000,2.328 324.328,3.000 323.500,3.000 L321.500,3.000 ZM313.500,3.000 C312.672,3.000 312.000,2.328 312.000,1.500 C312.000,0.672 312.672,-0.000 313.500,-0.000 L315.500,-0.000 C316.328,-0.000 317.000,0.672 317.000,1.500 C317.000,2.328 316.328,3.000 315.500,3.000 L313.500,3.000 ZM305.500,3.000 C304.672,3.000 304.000,2.328 304.000,1.500 C304.000,0.672 304.672,-0.000 305.500,-0.000 L307.500,-0.000 C308.328,-0.000 309.000,0.672 309.000,1.500 C309.000,2.328 308.328,3.000 307.500,3.000 L305.500,3.000 ZM297.500,3.000 C296.672,3.000 296.000,2.328 296.000,1.500 C296.000,0.672 296.672,-0.000 297.500,-0.000 L299.500,-0.000 C300.328,-0.000 301.000,0.672 301.000,1.500 C301.000,2.328 300.328,3.000 299.500,3.000 L297.500,3.000 ZM289.500,3.000 C288.672,3.000 288.000,2.328 288.000,1.500 C288.000,0.672 288.672,-0.000 289.500,-0.000 L291.500,-0.000 C292.328,-0.000 293.000,0.672 293.000,1.500 C293.000,2.328 292.328,3.000 291.500,3.000 L289.500,3.000 ZM281.500,3.000 C280.672,3.000 280.000,2.328 280.000,1.500 C280.000,0.672 280.672,-0.000 281.500,-0.000 L283.500,-0.000 C284.328,-0.000 285.000,0.672 285.000,1.500 C285.000,2.328 284.328,3.000 283.500,3.000 L281.500,3.000 ZM273.500,3.000 C272.672,3.000 272.000,2.328 272.000,1.500 C272.000,0.672 272.672,-0.000 273.500,-0.000 L275.500,-0.000 C276.328,-0.000 277.000,0.672 277.000,1.500 C277.000,2.328 276.328,3.000 275.500,3.000 L273.500,3.000 ZM265.500,3.000 C264.672,3.000 264.000,2.328 264.000,1.500 C264.000,0.672 264.672,-0.000 265.500,-0.000 L267.500,-0.000 C268.328,-0.000 269.000,0.672 269.000,1.500 C269.000,2.328 268.328,3.000 267.500,3.000 L265.500,3.000 ZM257.500,3.000 C256.672,3.000 256.000,2.328 256.000,1.500 C256.000,0.672 256.672,-0.000 257.500,-0.000 L259.500,-0.000 C260.328,-0.000 261.000,0.672 261.000,1.500 C261.000,2.328 260.328,3.000 259.500,3.000 L257.500,3.000 ZM249.500,3.000 C248.672,3.000 248.000,2.328 248.000,1.500 C248.000,0.672 248.672,-0.000 249.500,-0.000 L251.500,-0.000 C252.328,-0.000 253.000,0.672 253.000,1.500 C253.000,2.328 252.328,3.000 251.500,3.000 L249.500,3.000 ZM241.500,3.000 C240.672,3.000 240.000,2.328 240.000,1.500 C240.000,0.672 240.672,-0.000 241.500,-0.000 L243.500,-0.000 C244.328,-0.000 245.000,0.672 245.000,1.500 C245.000,2.328 244.328,3.000 243.500,3.000 L241.500,3.000 ZM233.500,3.000 C232.672,3.000 232.000,2.328 232.000,1.500 C232.000,0.672 232.672,-0.000 233.500,-0.000 L235.500,-0.000 C236.328,-0.000 237.000,0.672 237.000,1.500 C237.000,2.328 236.328,3.000 235.500,3.000 L233.500,3.000 ZM225.500,3.000 C224.672,3.000 224.000,2.328 224.000,1.500 C224.000,0.672 224.672,-0.000 225.500,-0.000 L227.500,-0.000 C228.328,-0.000 229.000,0.672 229.000,1.500 C229.000,2.328 228.328,3.000 227.500,3.000 L225.500,3.000 ZM217.500,3.000 C216.672,3.000 216.000,2.328 216.000,1.500 C216.000,0.672 216.672,-0.000 217.500,-0.000 L219.500,-0.000 C220.328,-0.000 221.000,0.672 221.000,1.500 C221.000,2.328 220.328,3.000 219.500,3.000 L217.500,3.000 ZM209.500,3.000 C208.672,3.000 208.000,2.328 208.000,1.500 C208.000,0.672 208.672,-0.000 209.500,-0.000 L211.500,-0.000 C212.328,-0.000 213.000,0.672 213.000,1.500 C213.000,2.328 212.328,3.000 211.500,3.000 L209.500,3.000 ZM201.500,3.000 C200.672,3.000 200.000,2.328 200.000,1.500 C200.000,0.672 200.672,-0.000 201.500,-0.000 L203.500,-0.000 C204.328,-0.000 205.000,0.672 205.000,1.500 C205.000,2.328 204.328,3.000 203.500,3.000 L201.500,3.000 ZM193.500,3.000 C192.672,3.000 192.000,2.328 192.000,1.500 C192.000,0.672 192.672,-0.000 193.500,-0.000 L195.500,-0.000 C196.328,-0.000 197.000,0.672 197.000,1.500 C197.000,2.328 196.328,3.000 195.500,3.000 L193.500,3.000 ZM185.500,3.000 C184.672,3.000 184.000,2.328 184.000,1.500 C184.000,0.672 184.672,-0.000 185.500,-0.000 L187.500,-0.000 C188.328,-0.000 189.000,0.672 189.000,1.500 C189.000,2.328 188.328,3.000 187.500,3.000 L185.500,3.000 ZM177.500,3.000 C176.672,3.000 176.000,2.328 176.000,1.500 C176.000,0.672 176.672,-0.000 177.500,-0.000 L179.500,-0.000 C180.328,-0.000 181.000,0.672 181.000,1.500 C181.000,2.328 180.328,3.000 179.500,3.000 L177.500,3.000 ZM169.500,3.000 C168.672,3.000 168.000,2.328 168.000,1.500 C168.000,0.672 168.672,-0.000 169.500,-0.000 L171.500,-0.000 C172.328,-0.000 173.000,0.672 173.000,1.500 C173.000,2.328 172.328,3.000 171.500,3.000 L169.500,3.000 ZM161.500,3.000 C160.672,3.000 160.000,2.328 160.000,1.500 C160.000,0.672 160.672,-0.000 161.500,-0.000 L163.500,-0.000 C164.328,-0.000 165.000,0.672 165.000,1.500 C165.000,2.328 164.328,3.000 163.500,3.000 L161.500,3.000 ZM153.500,3.000 C152.672,3.000 152.000,2.328 152.000,1.500 C152.000,0.672 152.672,-0.000 153.500,-0.000 L155.500,-0.000 C156.328,-0.000 157.000,0.672 157.000,1.500 C157.000,2.328 156.328,3.000 155.500,3.000 L153.500,3.000 ZM145.500,3.000 C144.672,3.000 144.000,2.328 144.000,1.500 C144.000,0.672 144.672,-0.000 145.500,-0.000 L147.500,-0.000 C148.328,-0.000 149.000,0.672 149.000,1.500 C149.000,2.328 148.328,3.000 147.500,3.000 L145.500,3.000 ZM137.500,3.000 C136.672,3.000 136.000,2.328 136.000,1.500 C136.000,0.672 136.672,-0.000 137.500,-0.000 L139.500,-0.000 C140.328,-0.000 141.000,0.672 141.000,1.500 C141.000,2.328 140.328,3.000 139.500,3.000 L137.500,3.000 ZM129.500,3.000 C128.672,3.000 128.000,2.328 128.000,1.500 C128.000,0.672 128.672,-0.000 129.500,-0.000 L131.500,-0.000 C132.328,-0.000 133.000,0.672 133.000,1.500 C133.000,2.328 132.328,3.000 131.500,3.000 L129.500,3.000 ZM121.500,3.000 C120.672,3.000 120.000,2.328 120.000,1.500 C120.000,0.672 120.672,-0.000 121.500,-0.000 L123.500,-0.000 C124.328,-0.000 125.000,0.672 125.000,1.500 C125.000,2.328 124.328,3.000 123.500,3.000 L121.500,3.000 ZM113.500,3.000 C112.672,3.000 112.000,2.328 112.000,1.500 C112.000,0.672 112.672,-0.000 113.500,-0.000 L115.500,-0.000 C116.328,-0.000 117.000,0.672 117.000,1.500 C117.000,2.328 116.328,3.000 115.500,3.000 L113.500,3.000 ZM105.500,3.000 C104.672,3.000 104.000,2.328 104.000,1.500 C104.000,0.672 104.672,-0.000 105.500,-0.000 L107.500,-0.000 C108.328,-0.000 109.000,0.672 109.000,1.500 C109.000,2.328 108.328,3.000 107.500,3.000 L105.500,3.000 ZM97.500,3.000 C96.672,3.000 96.000,2.328 96.000,1.500 C96.000,0.672 96.672,-0.000 97.500,-0.000 L99.500,-0.000 C100.328,-0.000 101.000,0.672 101.000,1.500 C101.000,2.328 100.328,3.000 99.500,3.000 L97.500,3.000 ZM89.500,3.000 C88.672,3.000 88.000,2.328 88.000,1.500 C88.000,0.672 88.672,-0.000 89.500,-0.000 L91.500,-0.000 C92.328,-0.000 93.000,0.672 93.000,1.500 C93.000,2.328 92.328,3.000 91.500,3.000 L89.500,3.000 ZM81.500,3.000 C80.672,3.000 80.000,2.328 80.000,1.500 C80.000,0.672 80.672,-0.000 81.500,-0.000 L83.500,-0.000 C84.328,-0.000 85.000,0.672 85.000,1.500 C85.000,2.328 84.328,3.000 83.500,3.000 L81.500,3.000 ZM73.500,3.000 C72.672,3.000 72.000,2.328 72.000,1.500 C72.000,0.672 72.672,-0.000 73.500,-0.000 L75.500,-0.000 C76.328,-0.000 77.000,0.672 77.000,1.500 C77.000,2.328 76.328,3.000 75.500,3.000 L73.500,3.000 ZM65.500,3.000 C64.672,3.000 64.000,2.328 64.000,1.500 C64.000,0.672 64.672,-0.000 65.500,-0.000 L67.500,-0.000 C68.328,-0.000 69.000,0.672 69.000,1.500 C69.000,2.328 68.328,3.000 67.500,3.000 L65.500,3.000 ZM57.500,3.000 C56.672,3.000 56.000,2.328 56.000,1.500 C56.000,0.672 56.672,-0.000 57.500,-0.000 L59.500,-0.000 C60.328,-0.000 61.000,0.672 61.000,1.500 C61.000,2.328 60.328,3.000 59.500,3.000 L57.500,3.000 ZM49.500,3.000 C48.672,3.000 48.000,2.328 48.000,1.500 C48.000,0.672 48.672,-0.000 49.500,-0.000 L51.500,-0.000 C52.328,-0.000 53.000,0.672 53.000,1.500 C53.000,2.328 52.328,3.000 51.500,3.000 L49.500,3.000 ZM41.500,3.000 C40.672,3.000 40.000,2.328 40.000,1.500 C40.000,0.672 40.672,-0.000 41.500,-0.000 L43.500,-0.000 C44.328,-0.000 45.000,0.672 45.000,1.500 C45.000,2.328 44.328,3.000 43.500,3.000 L41.500,3.000 ZM33.500,3.000 C32.672,3.000 32.000,2.328 32.000,1.500 C32.000,0.672 32.672,-0.000 33.500,-0.000 L35.500,-0.000 C36.328,-0.000 37.000,0.672 37.000,1.500 C37.000,2.328 36.328,3.000 35.500,3.000 L33.500,3.000 ZM25.500,3.000 C24.672,3.000 24.000,2.328 24.000,1.500 C24.000,0.672 24.672,-0.000 25.500,-0.000 L27.500,-0.000 C28.328,-0.000 29.000,0.672 29.000,1.500 C29.000,2.328 28.328,3.000 27.500,3.000 L25.500,3.000 ZM17.500,3.000 C16.672,3.000 16.000,2.328 16.000,1.500 C16.000,0.672 16.672,-0.000 17.500,-0.000 L19.500,-0.000 C20.328,-0.000 21.000,0.672 21.000,1.500 C21.000,2.328 20.328,3.000 19.500,3.000 L17.500,3.000 ZM9.500,3.000 C8.672,3.000 8.000,2.328 8.000,1.500 C8.000,0.672 8.672,-0.000 9.500,-0.000 L11.500,-0.000 C12.328,-0.000 13.000,0.672 13.000,1.500 C13.000,2.328 12.328,3.000 11.500,3.000 L9.500,3.000 ZM1.500,3.000 C0.672,3.000 -0.000,2.328 -0.000,1.500 C-0.000,0.672 0.672,-0.000 1.500,-0.000 L3.500,-0.000 C4.328,-0.000 5.000,0.672 5.000,1.500 C5.000,2.328 4.328,3.000 3.500,3.000 L1.500,3.000 Z" class="cls-1"/>
</svg>
