<svg xmlns="http://www.w3.org/2000/svg" xmlns:xlink="http://www.w3.org/1999/xlink" preserveAspectRatio="xMidYMid" width="319" height="164" viewBox="0 0 319 164">
  <defs>
    <style>
      .cls-1 {
        fill: #e81a22;
        filter: url(#drop-shadow-1);
        fill-rule: evenodd;
      }
    </style>

    <filter id="drop-shadow-1" filterUnits="userSpaceOnUse">
      <feOffset dx="0.523" dy="9.986" in="SourceAlpha"/>
      <feGaussianBlur stdDeviation="6.164" result="dropBlur"/>
      <feFlood flood-color="#aa393e" flood-opacity="0.53"/>
      <feComposite operator="in" in2="dropBlur" result="dropShadowComp"/>
      <feComposite in="SourceGraphic" result="shadowed"/>
    </filter>
  </defs>
  <path d="M44.500,102.505 C44.500,102.505 56.507,104.502 74.833,104.502 C91.888,104.502 114.415,106.101 137.832,106.101 C150.249,106.101 160.457,126.500 159.500,126.500 C159.075,126.500 166.949,107.914 180.167,107.914 C223.441,107.914 274.500,103.504 274.500,103.504 C277.261,103.504 279.500,101.268 279.500,98.511 C279.500,98.511 281.500,91.176 281.500,81.866 C281.500,65.702 279.500,43.586 279.500,43.586 C279.500,40.828 277.261,38.593 274.500,38.593 C274.500,38.593 242.615,38.592 219.500,38.592 C208.496,38.592 195.853,37.562 182.505,37.510 C165.449,37.443 147.242,39.417 129.833,39.418 C114.438,39.420 99.667,38.211 86.869,37.934 C80.678,37.799 78.948,37.654 73.833,37.654 C66.014,37.654 65.007,37.606 62.829,37.591 C60.663,37.576 57.992,37.562 52.832,37.562 C45.053,37.562 44.500,37.594 44.500,37.594 C41.738,37.594 39.500,44.822 39.500,47.580 C39.500,47.580 40.294,57.569 39.500,57.569 C38.789,57.569 38.185,64.747 38.018,67.839 C37.722,73.311 37.500,74.199 37.500,79.536 C37.500,89.468 39.500,97.512 39.500,97.512 C39.500,100.269 41.738,102.505 44.500,102.505 Z" class="cls-1"/>
</svg>
