<svg width="156px" height="140px" viewBox="0 0 156 140" version="1.1" xmlns="http://www.w3.org/2000/svg" xmlns:xlink="http://www.w3.org/1999/xlink">
    <g id="Page-1" stroke="none" stroke-width="1" fill="none" fill-rule="evenodd" opacity="0.984375">
        <g id="1280-copy-2" transform="translate(-244.000000, -367.000000)" fill="#FFFFFF">
            <g id="Group-6" transform="translate(243.725176, 357.532875)">
                <path d="M31.9482752,149.061505 C27.0615025,149.061505 22.3376222,148.73572 18.1024193,148.409935 C17.7766344,148.409935 17.1250647,148.409935 16.3106026,148.409935 C8.32887395,148.247043 0.510037687,147.758365 0.347145265,143.36027 C0.184252843,141.568453 2.30185433,140.428206 5.23391793,138.63639 C5.55970277,138.473497 5.88548762,138.310605 6.04838004,138.147713 C8.49176637,136.518788 10.9351527,134.889864 13.378539,133.26094 C17.9395269,130.165984 22.6634071,127.23392 27.2243949,124.138964 C27.7130722,123.813179 28.3646419,123.487395 29.0162116,123.16161 C30.1564585,122.51004 31.4595979,121.85847 31.2967055,121.369793 C31.2967055,121.206901 31.2967055,120.881116 30.9709206,120.392439 C29.9935661,118.926407 28.3646419,117.623267 26.7357176,116.320128 C26.2470404,115.994343 25.9212555,115.668558 25.4325783,115.342773 C22.5005147,113.06228 20.5458056,109.315754 18.9168814,106.057905 L18.2653117,104.754766 C13.8672163,96.2843601 14.8445708,85.8592451 16.1477102,76.574377 C17.613742,66.6379393 20.708698,57.3530712 25.2696858,49.2084501 C32.5998448,36.3399488 44.3280992,27.3808656 55.8934612,19.7249217 C64.0380823,14.3494718 72.9971655,12.7205476 81.6304639,11.2545158 C82.7707108,11.0916234 83.9109578,10.9287309 84.8883123,10.6029461 C86.680129,10.2771612 88.4719456,10.1142688 90.1008698,10.1142688 C91.0782244,10.1142688 92.0555789,9.9513764 93.1958259,9.9513764 C116.815227,7.67088249 143.529584,24.2859095 150.208174,45.6248168 C154.280484,58.6562106 157.864117,74.2938831 152.977345,90.5831253 C148.579249,105.080551 135.384963,120.229546 120.724645,127.23392 C118.281259,128.374167 115.837873,129.514414 113.394486,130.491769 C111.765562,131.306231 109.973745,131.957801 108.344821,132.772263 C85.2140972,143.523163 59.9657718,146.781011 38.6268645,148.572828 C36.6721554,149.061505 34.2287691,149.061505 31.9482752,149.061505 Z" id="Path"></path>
            </g>
        </g>
    </g>
</svg>