<svg width="113px" height="59px" viewBox="0 0 113 59" version="1.1" xmlns="http://www.w3.org/2000/svg" xmlns:xlink="http://www.w3.org/1999/xlink">
    <g id="Page-1" stroke="none" stroke-width="1" fill="none" fill-rule="evenodd">
        <g id="1280-copy-2" transform="translate(-405.000000, -285.000000)">
            <g id="Group-10" transform="translate(398.000000, 274.000000)">
                <g id="Group-7" transform="translate(0.561173, 0.748070)">
                    <g id="Фигура_46_2_" transform="translate(48.790501, 46.235516) rotate(30.000000) translate(-48.790501, -46.235516) translate(10.290501, 16.235516)" fill="#FFFFFF">
                        <path d="M19.7513514,59.6324324 C16.572973,59.6324324 13.0918919,59.1027027 9.76216216,57.4378378 C4.54054054,54.8648649 0.983783784,49.8702703 0.681081081,44.6486486 C0.227027027,36.2486486 2.95135135,27.6216216 8.17297297,20.9621622 C15.4378378,11.8054054 26.8648649,7.11351351 34.8108108,4.38918919 C41.4702703,2.04324324 46.6918919,0.908108108 51.6864865,0.605405405 C58.1189189,0.227027027 63.9459459,1.51351351 68.6378378,4.23783784 C70.0756757,5.07027027 71.3621622,5.97837838 72.4216216,7.11351351 C76.5837838,11.2756757 77.8702703,18.1621622 75.827027,24.5945946 C74.1621622,29.7405405 70.6810811,34.5081081 65.1567568,39.2 C57.7405405,45.4810811 48.8864865,49.9459459 40.4108108,53.8054054 C35.7189189,55.9243243 30.8,58.1189189 25.5783784,59.1027027 C23.8378378,59.4054054 21.8702703,59.6324324 19.7513514,59.6324324 Z" id="Path"></path>
                    </g>
                    <g id="Group-5" transform="translate(36.766183, 10.243636)">
                        <rect id="bg" fill="#E63F39" x="0.235224381" y="0.241531232" width="21.06" height="21.06" rx="10.53"></rect>
                        <g id="baseline-play_arrow-24px" transform="translate(7.966989, 5.980731)" fill="#FFFFFF">
                            <polygon id="Path" points="0 0 0 10.1088 7.94262857 5.0544"></polygon>
                        </g>
                    </g>
                </g>
                <path d="M95.5189323,64.5086977 C94.6108242,64.5086977 93.6270404,64.205995 92.8702837,63.6762653 C91.8864999,62.9195085 91.3567702,61.9357248 91.5081215,61.0276167 C91.5837972,60.5735626 91.8108242,60.1951842 91.9621756,59.8168058 C93.0973107,57.8492383 94.6108242,56.1086977 96.5027161,54.6708599 C97.1837972,54.1411302 98.0162296,53.6870761 99.0000134,53.0816707 C99.6054188,52.778968 100.589203,52.1735626 101.648662,52.4762653 C102.329743,52.6276167 102.859473,53.1573464 103.237851,53.6870761 C104.600013,55.351941 105.129743,56.9411302 104.751365,58.378968 C104.448662,59.4384275 103.691905,60.2708599 103.0865,60.8005896 C101.648662,62.1627518 99.9081215,63.2222112 98.0162296,63.978968 C97.3351485,64.205995 96.5783918,64.5086977 95.6702837,64.5086977 C95.5189323,64.5086977 95.5189323,64.5086977 95.5189323,64.5086977 Z" id="Path" fill="#FFFFFF"></path>
                <path d="M114.586628,68.1486977 C114.056898,68.1486977 113.375817,68.0730221 112.694736,67.6946437 C111.483925,66.9378869 110.87852,65.2730221 111.408249,63.7595085 C112.165006,61.6405896 114.586628,60.6568058 116.629871,60.8081572 C117.689331,60.8838329 118.446087,61.2622112 118.975817,61.8676167 C119.505547,62.4730221 119.656898,63.2297788 119.505547,64.0622112 C119.202844,65.5000491 117.916358,67.0135626 116.781222,67.618968 C116.175817,67.9973464 115.41906,68.1486977 114.662304,68.2243734 C114.662304,68.1486977 114.662304,68.1486977 114.586628,68.1486977 Z" id="Path" fill="#FFFFFF"></path>
            </g>
        </g>
    </g>
</svg>