<svg width="160px" height="181px" viewBox="0 0 160 181" version="1.1" xmlns="http://www.w3.org/2000/svg" xmlns:xlink="http://www.w3.org/1999/xlink">
    <g id="Page-1" stroke="none" stroke-width="1" fill="none" fill-rule="evenodd" opacity="0.954148065">
        <g id="1280-copy-2" transform="translate(-983.000000, -249.000000)" fill="#FFFFFF">
            <g id="Group-8" transform="translate(983.000000, 241.000000)">
                <g id="Фигура_16_2_" transform="translate(80.331147, 98.500000) scale(-1, 1) translate(-80.331147, -98.500000) translate(0.331147, 8.000000)">
                    <path d="M44.4066459,180.491396 C44.1798853,180.491396 43.9531247,180.491396 43.7263642,180.491396 C42.5925614,180.264635 41.4587586,179.357593 41.231998,177.99703 C40.5517163,176.182945 41.6855191,174.368861 42.3658008,173.461818 L42.5925614,173.235058 C47.8080543,164.164635 53.0235473,155.320973 58.2390402,146.250551 L62.7742515,138.540692 C63.0010121,137.86041 63.6812938,137.180128 64.3615755,136.273086 C65.2686177,135.139283 66.8559417,132.644917 67.0827022,131.737875 C67.0827022,131.511114 65.9488994,130.604072 65.4953783,130.377311 L65.2686177,130.150551 C63.9080543,129.243508 62.5474909,128.336466 60.960167,127.656184 C59.8263642,126.975903 58.4658008,126.522382 57.331998,125.8421 C53.2503078,123.347734 49.3953783,120.626607 45.5404487,118.132241 L43.2728431,116.771677 C42.3658008,116.091396 41.231998,115.184353 40.7784769,114.050551 C39.8714346,111.329424 42.1390402,108.835058 42.8193219,107.928015 C43.4996036,107.247734 44.4066459,106.340692 45.3136881,105.433649 C46.4474909,104.299846 47.5812938,103.166044 48.488336,102.032241 C46.4474909,102.032241 44.6334064,102.259001 43.0460825,102.259001 L37.8305895,102.259001 C35.3362233,102.259001 32.8418571,102.259001 30.3474909,102.259001 C21.503829,102.259001 11.5263642,101.57872 5.63058954,94.7759028 C0.868617706,89.1068887 0.641857143,81.170269 0.868617706,73.6871704 L2.00242052,29.4688605 C2.22918109,21.3054802 2.90946278,12.0082971 9.71227968,6.56604362 C14.7010121,2.71111404 21.2770684,2.48435348 26.4925614,2.48435348 L114.248899,0.216747844 C119.917913,-0.0100127191 126.49397,-0.236773282 132.616505,1.1237901 C139.646082,2.71111404 145.315097,6.11252249 148.943266,10.8744943 C151.210871,14.0491422 152.571435,17.6773112 153.705237,20.8519591 C159.601012,38.9928042 159.601012,58.0406915 159.601012,76.6350577 C159.601012,80.4899873 159.601012,86.6125225 156.199604,90.6942126 C153.024956,94.3223816 148.262984,95.4561845 143.954533,96.3632267 C124.226364,100.218156 103.817913,102.032241 83.6362233,101.57872 C79.5545332,101.57872 74.3390402,104.299846 73.8855191,108.381537 C73.8855191,108.381537 73.8855191,108.381537 73.8855191,108.381537 C73.8855191,108.381537 73.8855191,108.381537 74.1122797,108.381537 C78.1939698,110.875903 82.9559417,113.82379 87.7179135,117.225199 C89.3052374,118.359001 91.3460825,119.719565 92.7066459,121.98717 C94.2939698,124.708297 94.0672093,128.109706 92.2531247,130.150551 L57.331998,168.019565 C55.744674,169.833649 54.1573501,171.874494 52.5700262,173.915339 C50.9827022,175.956184 49.6221388,177.99703 47.8080543,179.811114 C46.4474909,180.037875 45.3136881,180.491396 44.4066459,180.491396 Z" id="Path"></path>
                </g>
            </g>
        </g>
    </g>
</svg>