<svg xmlns="http://www.w3.org/2000/svg" width="25.75" height="46.06" viewBox="0 0 25.75 46.06">
  <metadata><?xpacket begin="﻿" id="W5M0MpCehiHzreSzNTczkc9d"?>
<x:xmpmeta xmlns:x="adobe:ns:meta/" x:xmptk="Adobe XMP Core 5.6-c142 79.160924, 2017/07/13-01:06:39        ">
   <rdf:RDF xmlns:rdf="http://www.w3.org/1999/02/22-rdf-syntax-ns#">
      <rdf:Description rdf:about=""/>
   </rdf:RDF>
</x:xmpmeta>
                                                                                                    
                                                                                                    
                                                                                                    
                                                                                                    
                                                                                                    
                                                                                                    
                                                                                                    
                                                                                                    
                                                                                                    
                                                                                                    
                                                                                                    
                                                                                                    
                                                                                                    
                                                                                                    
                                                                                                    
                                                                                                    
                                                                                                    
                                                                                                    
                                                                                                    
                                                                                                    
                           
<?xpacket end="w"?></metadata>
<defs>
    <style>
      .cls-1 {
        fill: #eb2929;
        fill-rule: evenodd;
      }
    </style>
  </defs>
  <path id="Rounded_Rectangle_3_copy_2" data-name="Rounded Rectangle 3 copy 2" class="cls-1" d="M254.459,1800.6a2.125,2.125,0,0,0-3-.01,25.666,25.666,0,0,0-5.236,3.84c-2.351,2.15-5.15,5.61-7.642,8.08a106.562,106.562,0,0,0-7.644,8.43,2.122,2.122,0,1,0,2.992,3.01,107.4,107.4,0,0,1,7.658-8.43c3.21-3.19,6.657-6.03,9.032-8.62a23.263,23.263,0,0,1,3.832-3.3A2.118,2.118,0,0,0,254.459,1800.6Z" transform="translate(-230.313 -1799.97)"/>
  <path id="Rounded_Rectangle_3_copy_3" data-name="Rounded Rectangle 3 copy 3" class="cls-1" d="M255.459,1845.4a2.125,2.125,0,0,1-3,.01,25.666,25.666,0,0,1-5.236-3.84c-2.351-2.15-5.15-5.61-7.642-8.08a106.562,106.562,0,0,1-7.644-8.43,2.122,2.122,0,1,1,2.992-3.01,107.4,107.4,0,0,0,7.658,8.43c3.21,3.19,6.657,6.03,9.032,8.62a23.263,23.263,0,0,0,3.832,3.3A2.118,2.118,0,0,1,255.459,1845.4Z" transform="translate(-230.313 -1799.97)"/>
</svg>
