<svg xmlns="http://www.w3.org/2000/svg" width="96.062" height="59.93" viewBox="0 0 96.062 59.93">
  <metadata><?xpacket begin="﻿" id="W5M0MpCehiHzreSzNTczkc9d"?>
<x:xmpmeta xmlns:x="adobe:ns:meta/" x:xmptk="Adobe XMP Core 5.6-c142 79.160924, 2017/07/13-01:06:39        ">
   <rdf:RDF xmlns:rdf="http://www.w3.org/1999/02/22-rdf-syntax-ns#">
      <rdf:Description rdf:about=""/>
   </rdf:RDF>
</x:xmpmeta>
                                                                                                    
                                                                                                    
                                                                                                    
                                                                                                    
                                                                                                    
                                                                                                    
                                                                                                    
                                                                                                    
                                                                                                    
                                                                                                    
                                                                                                    
                                                                                                    
                                                                                                    
                                                                                                    
                                                                                                    
                                                                                                    
                                                                                                    
                                                                                                    
                                                                                                    
                                                                                                    
                           
<?xpacket end="w"?></metadata>
<defs>
    <style>
      .cls-1 {
        fill: #fff;
        fill-rule: evenodd;
      }
    </style>
  </defs>
  <path id="Ellipse_1_copy_5" data-name="Ellipse 1 copy 5" class="cls-1" d="M746.263,1646.38c10.016,0,4.5-4.58,18.428.26,4.774,1.66,6.085,7.53,9.723,10.25,6.822,5.11,7.552,7.94,9.349,17.75,1.286,7.02.459,14.52-5.763,19.36-2.393,1.86-6.706,2.95-9.922,4.46-3.79,1.79-5.866,1.42-10.676,2.49a48.276,48.276,0,0,1-20.4.05c-0.1,0-5.188,5.75-18.687,2.13-11.464-3.08-15.519-1.54-20.79-8.47-3.619-4.76-2.785-1.45-7.27-9.84-1.924-3.6-1.97-7.86-1.97-11.72,0-5.99-1.278-11.64,7.376-15.43,4.028-1.76,2.82-8.11,11.884-10.12,10.913-2.41,10.094-.1,15.849-0.71a59,59,0,0,0,9.315-1.39C740.434,1643.95,743.732,1646.38,746.263,1646.38Z" transform="translate(-688.219 -1644.41)"/>
</svg>
