<svg xmlns="http://www.w3.org/2000/svg" width="97.313" height="57.75" viewBox="0 0 97.313 57.75">
  <metadata><?xpacket begin="﻿" id="W5M0MpCehiHzreSzNTczkc9d"?>
<x:xmpmeta xmlns:x="adobe:ns:meta/" x:xmptk="Adobe XMP Core 5.6-c142 79.160924, 2017/07/13-01:06:39        ">
   <rdf:RDF xmlns:rdf="http://www.w3.org/1999/02/22-rdf-syntax-ns#">
      <rdf:Description rdf:about=""/>
   </rdf:RDF>
</x:xmpmeta>
                                                                                                    
                                                                                                    
                                                                                                    
                                                                                                    
                                                                                                    
                                                                                                    
                                                                                                    
                                                                                                    
                                                                                                    
                                                                                                    
                                                                                                    
                                                                                                    
                                                                                                    
                                                                                                    
                                                                                                    
                                                                                                    
                                                                                                    
                                                                                                    
                                                                                                    
                                                                                                    
                           
<?xpacket end="w"?></metadata>
<defs>
    <style>
      .cls-1 {
        fill: #fff;
        fill-rule: evenodd;
      }
    </style>
  </defs>
  <path id="Ellipse_1_copy_4" data-name="Ellipse 1 copy 4" class="cls-1" d="M745.263,1585.38c10.016,0,5.5-3.58,19.428,1.26,4.774,1.66,6.085,7.53,9.723,10.25,6.822,5.11,8.789,8.3,10.586,18.11,1.286,7.02-1.274,11.32-7.5,16.17a55.06,55.06,0,0,1-9.426,5.29c-3.79,1.79-5.748,4.49-10.676,4.49-12.208,0-9.734.05-10.4,0.05-0.1,0-15.022,2.07-28.687-.87-12.214-2.63-13.669,3.51-20.79-5.47-3.715-4.68-2.785-1.45-7.27-9.84-1.924-3.6-2.253-9.96-2.253-13.82,0-5.99,2.5-9.54,7.659-13.33,3.543-2.6,2.82-8.11,11.884-10.12,10.913-2.41,6.7.06,12.457-.55,2.062-.22,5.466-1.14,12.707-2.55C740.434,1582.95,742.732,1585.38,745.263,1585.38Z" transform="translate(-688 -1583.97)"/>
</svg>
