<svg width="192px" height="176px" viewBox="0 0 192 176" version="1.1" xmlns="http://www.w3.org/2000/svg" xmlns:xlink="http://www.w3.org/1999/xlink">
    <defs>
        <path d="M951.17176,2806.38007 C945.966236,2806.38007 940.934229,2806.03303 936.422774,2805.686 C936.075739,2805.686 935.381669,2805.686 934.514082,2805.686 C926.011725,2805.51248 917.682885,2804.99193 917.509368,2800.30696 C917.33585,2798.39826 919.591578,2797.18364 922.714893,2795.27495 C923.061928,2795.10143 923.408962,2794.92791 923.58248,2794.7544 C926.185242,2793.01922 928.788005,2791.28405 931.390767,2789.54887 C936.249256,2786.25204 941.281264,2783.12873 946.139753,2779.83189 C946.660306,2779.48486 947.354376,2779.13782 948.048446,2778.79079 C949.263068,2778.09672 950.651208,2777.40265 950.47769,2776.8821 C950.47769,2776.70858 950.47769,2776.36154 950.130655,2775.84099 C949.08955,2774.27933 947.354376,2772.89119 945.619201,2771.50305 C945.098648,2771.15602 944.751613,2770.80898 944.231061,2770.46195 C941.107746,2768.0327 939.025536,2764.0418 937.290361,2760.57145 L936.596291,2759.18331 C931.911319,2750.1604 932.952424,2739.05528 934.340564,2729.16479 C935.902221,2718.58022 939.199054,2708.68972 944.057543,2700.01385 C951.86583,2686.30597 964.359089,2676.76251 976.678831,2668.60718 C985.354705,2662.88111 994.898167,2661.14593 1004.09459,2659.58428 C1005.30922,2659.41076 1006.52384,2659.23724 1007.56494,2658.89021 C1009.47364,2658.54317 1011.38233,2658.36965 1013.1175,2658.36965 C1014.15861,2658.36965 1015.19971,2658.19614 1016.41433,2658.19614 C1041.57437,2655.76689 1070.03124,2673.46567 1077.14546,2696.19646 C1081.48339,2710.07786 1085.30078,2726.73554 1080.09525,2744.08729 C1075.41028,2759.53035 1061.35536,2775.66747 1045.73879,2783.12873 C1043.13603,2784.34335 1040.53327,2785.55797 1037.9305,2786.59907 C1036.19533,2787.46666 1034.28664,2788.16073 1032.55146,2789.02832 C1007.91198,2800.48047 981.016768,2803.95082 958.285977,2805.85952 C956.203767,2806.38007 953.601005,2806.38007 951.17176,2806.38007 Z" id="path-1"></path>
        <filter x="-13.3%" y="-13.5%" width="126.6%" height="129.6%" filterUnits="objectBoundingBox" id="filter-2">
            <feOffset dx="0" dy="2" in="SourceAlpha" result="shadowOffsetOuter1"></feOffset>
            <feGaussianBlur stdDeviation="7" in="shadowOffsetOuter1" result="shadowBlurOuter1"></feGaussianBlur>
            <feColorMatrix values="0 0 0 0 0   0 0 0 0 0   0 0 0 0 0  0 0 0 0.166072237 0" type="matrix" in="shadowBlurOuter1"></feColorMatrix>
        </filter>
    </defs>
    <g id="Page-1" stroke="none" stroke-width="1" fill="none" fill-rule="evenodd" opacity="0.984375">
        <g id="1280-copy-11" transform="translate(-904.000000, -2646.000000)">
            <g id="Path" transform="translate(1000.055130, 2732.176440) scale(-1, 1) translate(-1000.055130, -2732.176440) ">
                <use fill="black" fill-opacity="1" filter="url(#filter-2)" xlink:href="#path-1"></use>
                <use fill="#FFFFFF" fill-rule="evenodd" xlink:href="#path-1"></use>
            </g>
        </g>
    </g>
</svg>