<svg width="179px" height="154px" viewBox="0 0 179 154" version="1.1" xmlns="http://www.w3.org/2000/svg" xmlns:xlink="http://www.w3.org/1999/xlink">
    <defs>
        <path d="M261.23742,2693.7847 C259.914712,2693.7847 258.757343,2693.28869 257.765312,2692.46199 C256.938619,2691.6353 256.607942,2690.64327 256.442604,2689.4859 C256.111927,2686.01379 259.08802,2683.86439 260.906743,2682.37635 C261.402759,2682.04567 261.733436,2681.71499 262.064113,2681.54965 C264.048174,2679.89627 266.362913,2677.91221 269.339006,2675.76281 C272.480438,2673.28273 275.952546,2670.63731 279.755331,2667.66122 C280.251347,2667.33054 280.747362,2666.99987 281.078039,2666.50385 L281.243378,2666.33851 C282.400747,2665.51182 283.392778,2664.51979 284.715486,2663.85843 C284.054132,2663.85843 283.558117,2663.85843 282.896763,2663.85843 C281.574055,2663.85843 280.251347,2663.85843 278.928639,2663.6931 C278.101946,2663.6931 277.275254,2663.52776 276.6139,2663.52776 L276.448561,2663.52776 C274.464499,2663.36242 272.315099,2663.19708 270.165699,2662.8664 C266.197575,2662.20505 263.386821,2660.55167 261.568097,2657.90625 C259.584035,2654.93016 259.08802,2650.96203 260.080051,2645.83654 C260.741405,2642.52977 261.402759,2639.05766 262.064113,2635.75089 C264.709528,2622.68915 267.354944,2608.96606 269.504345,2595.57364 C270.992391,2586.64536 273.30713,2580.03182 277.109915,2573.9143 C281.078039,2567.63143 286.864886,2567.46609 291.494364,2567.79677 C294.801134,2568.12745 298.438581,2568.45813 302.076028,2568.45813 C314.145738,2568.29279 327.207478,2568.12745 343.410651,2567.79677 C346.056067,2567.79677 348.701482,2567.63143 351.18156,2567.46609 C354.984345,2567.30076 359.117807,2567.13542 363.25127,2567.13542 C365.40067,2567.13542 367.715409,2567.13542 369.864809,2567.13542 C377.305042,2567.13542 384.910612,2567.13542 392.185506,2568.62346 C404.089877,2571.10354 409.546047,2578.2131 408.22334,2590.11747 C407.727324,2595.24296 406.073939,2600.03778 404.585893,2604.83259 C404.089877,2606.48598 403.593862,2608.13936 403.097846,2609.79275 C401.279123,2615.74493 399.460399,2621.69712 397.641676,2627.64931 L397.641676,2627.81464 C396.814984,2630.6254 395.988291,2633.27081 395.161599,2636.08157 C394.500245,2638.23097 393.838891,2640.54571 393.177537,2642.69511 C391.68949,2647.8206 390.201444,2653.11143 388.217382,2658.23693 C386.563997,2662.8664 382.761212,2666.00784 377.139703,2667.66122 C371.848871,2669.14927 366.227363,2669.14927 360.936531,2669.14927 L359.779161,2669.14927 C357.133746,2669.14927 354.322991,2669.14927 351.677575,2669.14927 L351.346898,2669.14927 C348.205467,2669.14927 344.898697,2669.14927 341.591927,2669.14927 C336.631773,2669.14927 331.340941,2669.14927 325.554094,2668.98393 C324.231386,2668.98393 322.908678,2668.81859 321.58597,2668.65325 C317.948523,2668.32257 314.145738,2667.9919 311.334983,2668.98393 C308.028213,2670.1413 304.721444,2672.2907 301.580012,2674.27476 C300.257304,2675.10145 298.934596,2675.92814 297.777227,2676.75484 C293.809103,2679.06958 288.518271,2682.21101 282.731424,2685.02176 C281.739393,2685.51778 280.747362,2686.01379 279.92067,2686.50981 C278.7633,2687.17116 277.605931,2687.83252 276.448561,2688.32853 L274.960515,2688.98989 C271.984422,2690.31259 269.173668,2691.6353 266.197575,2692.62733 C266.032236,2692.62733 265.701559,2692.79267 265.536221,2692.95801 C264.213513,2693.12335 262.725467,2693.7847 261.23742,2693.7847 Z" id="path-1"></path>
        <filter x="-14.5%" y="-15.8%" width="128.9%" height="134.7%" filterUnits="objectBoundingBox" id="filter-2">
            <feOffset dx="0" dy="2" in="SourceAlpha" result="shadowOffsetOuter1"></feOffset>
            <feGaussianBlur stdDeviation="7" in="shadowOffsetOuter1" result="shadowBlurOuter1"></feGaussianBlur>
            <feColorMatrix values="0 0 0 0 0   0 0 0 0 0   0 0 0 0 0  0 0 0 0.129132699 0" type="matrix" in="shadowBlurOuter1"></feColorMatrix>
        </filter>
    </defs>
    <g id="Page-1" stroke="none" stroke-width="1" fill="none" fill-rule="evenodd">
        <g id="1280-copy-11" transform="translate(-243.000000, -2555.000000)">
            <g id="Path">
                <use fill="black" fill-opacity="1" filter="url(#filter-2)" xlink:href="#path-1"></use>
                <use fill="#FFFFFF" fill-rule="evenodd" xlink:href="#path-1"></use>
            </g>
        </g>
    </g>
</svg>