<svg width="239px" height="190px" viewBox="0 0 239 190" version="1.1" xmlns="http://www.w3.org/2000/svg" xmlns:xlink="http://www.w3.org/1999/xlink">
    <defs>
        <path d="M49.3312936,151.156232 C41.2162131,151.156232 32.3282678,149.803719 23.8267549,145.552962 C10.4948369,138.983611 1.41367538,126.231342 0.64081057,112.899424 C-0.518486644,91.4524257 6.43729664,69.4257786 19.7692146,52.4227528 C38.31797,29.0435923 67.4936166,17.0641878 87.7813178,10.1084045 C104.784344,4.11870221 118.116262,1.22045918 130.868531,0.447594368 C147.291908,-0.518486644 162.169556,2.7661888 174.14896,9.72197208 C177.820068,11.8473503 181.104744,14.1659447 183.80977,17.0641878 C194.436662,27.6910789 197.721337,45.2737533 192.5045,61.6971305 C188.253743,74.8358323 150.35056,103.865024 136.245778,115.844429 C128.698267,122.236708 133.799926,134.851178 151.550753,153.687838 L151.550795,153.687799 C152.18312,154.358804 152.151764,155.415362 151.480759,156.047687 C150.95633,156.541886 150.173989,156.643817 149.540439,156.300491 C149.540439,156.300491 149.540439,156.300491 149.540439,156.300491 C121.171496,140.927133 103.684839,131.413503 98.5267613,133.762271 C86.5473567,139.172324 77.5408591,147.291908 64.2089412,149.803719 C59.7649685,150.576584 54.7413472,151.156232 49.3312936,151.156232 Z" id="path-1"></path>
        <filter x="-11.3%" y="-12.8%" width="122.6%" height="128.2%" filterUnits="objectBoundingBox" id="filter-2">
            <feOffset dx="0" dy="2" in="SourceAlpha" result="shadowOffsetOuter1"></feOffset>
            <feGaussianBlur stdDeviation="7" in="shadowOffsetOuter1" result="shadowBlurOuter1"></feGaussianBlur>
            <feColorMatrix values="0 0 0 0 0   0 0 0 0 0   0 0 0 0 0  0 0 0 0.110195879 0" type="matrix" in="shadowBlurOuter1"></feColorMatrix>
        </filter>
    </defs>
    <g id="Page-1" stroke="none" stroke-width="1" fill="none" fill-rule="evenodd">
        <g id="1280-copy-11" transform="translate(-445.000000, -2581.000000)">
            <g id="Фигура_46_2_" transform="translate(564.370992, 2662.211041) scale(-1, 1) rotate(30.000000) translate(-564.370992, -2662.211041) translate(466.870992, 2583.711041)">
                <g id="Path">
                    <use fill="black" fill-opacity="1" filter="url(#filter-2)" xlink:href="#path-1"></use>
                    <use fill="#FFFFFF" fill-rule="evenodd" xlink:href="#path-1"></use>
                </g>
            </g>
        </g>
    </g>
</svg>