<svg width="233px" height="383px" viewBox="0 0 233 383" version="1.1" xmlns="http://www.w3.org/2000/svg" xmlns:xlink="http://www.w3.org/1999/xlink">
    <defs>
        <filter x="-12.8%" y="-7.5%" width="125.6%" height="115.0%" filterUnits="objectBoundingBox" id="filter-1">
            <feOffset dx="0" dy="-8" in="SourceAlpha" result="shadowOffsetOuter1"></feOffset>
            <feGaussianBlur stdDeviation="6" in="shadowOffsetOuter1" result="shadowBlurOuter1"></feGaussianBlur>
            <feColorMatrix values="0 0 0 0 0   0 0 0 0 0   0 0 0 0 0  0 0 0 0.101873868 0" type="matrix" in="shadowBlurOuter1" result="shadowMatrixOuter1"></feColorMatrix>
            <feMerge>
                <feMergeNode in="shadowMatrixOuter1"></feMergeNode>
                <feMergeNode in="SourceGraphic"></feMergeNode>
            </feMerge>
        </filter>
    </defs>
    <g id="Page-1" stroke="none" stroke-width="1" fill="none" fill-rule="evenodd">
        <g id="1280-copy-11" transform="translate(-1036.000000, -1031.000000)" fill="#FFFFFF">
            <g id="Group-11" transform="translate(957.966010, 1050.740044)">
                <g id="Фигура_19_2_" filter="url(#filter-1)" transform="translate(89.625971, 0.489243)">
                    <path d="M107.6728,356.096651 C83.4641817,362.148806 50.1972821,358.861448 27.4127001,347.825166 C21.3605456,344.977093 15.6644001,339.636957 11.0362819,332.160766 C1.42403637,316.852375 -1.78004546,296.915866 2.49206365,279.47142 C7.12018185,262.026975 19.224491,246.006566 34.8888911,237.106338 C44.1451275,232.122211 55.1814094,228.56212 68.7097549,226.782075 L69.7777822,226.782075 C73.6938822,226.070056 77.6099822,225.714047 80.4580549,223.934002 C82.2381004,222.865975 83.6621368,220.373911 83.6621368,219.305884 C83.6621368,219.305884 83.6621368,218.949875 82.9501186,218.593865 C81.5260822,217.881847 79.3900277,217.881847 77.6099822,217.881847 C75.4739276,217.881847 73.3378731,217.881847 71.2018185,217.169829 C65.505673,215.745793 59.8095276,212.89772 55.1814094,208.98162 C44.8571457,201.14942 38.8049911,190.113138 37.7369638,178.364838 C37.0249456,166.972547 40.9410457,155.224247 49.4852639,145.968011 C57.673473,136.711774 69.065764,131.371638 80.1020458,131.015629 C81.1700731,131.015629 82.2381004,129.947601 82.5941095,129.591592 C83.6621368,128.167556 84.0181459,126.38751 83.3061277,124.963474 C82.2381004,121.403383 77.9659913,119.267329 74.7619095,118.55531 C71.2018185,117.843292 67.6417276,117.843292 63.7256276,118.199301 C62.6576003,118.199301 61.9455821,118.199301 60.8775548,118.199301 C41.2970547,118.911319 24.9206365,112.503156 16.0204092,100.754856 C12.4603182,96.1267376 9.6122455,90.074583 7.83220004,82.9544011 C3.20408183,65.5099556 5.34013639,46.2854646 12.8163273,29.9090463 C16.7324274,21.7208372 23.8526092,10.3285462 35.9569184,4.98840985 C40.9410457,2.85235529 46.6371911,1.42831892 54.1133821,0.716300738 C76.1859458,-1.06374473 98.9705277,3.56437348 118.195019,14.2446463 C123.179146,17.092719 129.58731,21.008819 133.50341,27.0609736 C136.707492,32.0451009 138.131528,38.0972555 138.843546,42.3693646 C140.623592,52.6936283 143.115655,78.682292 125.67121,94.7027012 C123.535155,96.4827467 121.75511,97.906783 119.619055,99.6868285 C116.414973,102.178892 113.210891,104.314947 111.074837,107.519029 C109.294791,110.011092 108.226764,113.571183 108.938782,116.419256 C109.294791,118.199301 110.00681,119.267329 111.430846,119.979347 C113.566901,121.403383 116.414973,120.691365 119.975064,120.335356 C121.399101,119.979347 122.823137,119.979347 124.247173,119.623338 C140.979601,118.199301 154.151937,132.083656 160.204092,144.543974 C168.392301,161.276402 169.104319,179.788874 161.984137,194.029238 C153.795928,210.761665 134.571437,220.017902 118.195019,215.745793 C117.83901,215.745793 117.126991,216.101802 116.770982,216.101802 C116.058964,216.81382 115.346946,217.881847 115.346946,218.593865 C115.346946,221.085929 117.83901,222.865975 119.975064,223.934002 C122.111119,225.002029 124.959192,225.358038 127.451255,226.070056 C128.163273,226.070056 129.231301,226.426065 129.943319,226.426065 C144.913616,229.523368 166.663776,241.212408 168.297333,243.01844 C172.917907,248.126867 211.571623,245.349156 210.781762,250.177843 C210.114556,254.256697 196.764816,259.279864 190.691313,262.91317 C187.224038,264.987372 184.456624,278.27575 180.079553,291.766533 C175.345037,306.359018 166.821641,323.829073 164.98,325.670714 C160.655856,329.994858 153.619405,337.717785 141.948,343.595356 C127.674753,350.783182 109.096836,355.740642 107.6728,356.096651 Z" id="Path"></path>
                </g>
            </g>
        </g>
    </g>
</svg>