<svg width="83px" height="90px" viewBox="0 0 83 90" version="1.1" xmlns="http://www.w3.org/2000/svg" xmlns:xlink="http://www.w3.org/1999/xlink">
    <g id="Page-1" stroke="none" stroke-width="1" fill="none" fill-rule="evenodd">
        <g id="iPhone-8-Copy-5" transform="translate(-22.319400, -203.000000)">
            <g id="Group-7" transform="translate(7.280668, 190.566727)">
                <g id="Фигура_46_2_" transform="translate(56.790501, 46.235516) rotate(30.000000) translate(-56.790501, -46.235516) translate(18.290501, 16.235516)" fill="#FFFFFF">
                    <path d="M19.7513514,59.6324324 C16.572973,59.6324324 13.0918919,59.1027027 9.76216216,57.4378378 C4.54054054,54.8648649 0.983783784,49.8702703 0.681081081,44.6486486 C0.227027027,36.2486486 2.95135135,27.6216216 8.17297297,20.9621622 C15.4378378,11.8054054 26.8648649,7.11351351 34.8108108,4.38918919 C41.4702703,2.04324324 46.6918919,0.908108108 51.6864865,0.605405405 C58.1189189,0.227027027 63.9459459,1.51351351 68.6378378,4.23783784 C70.0756757,5.07027027 71.3621622,5.97837838 72.4216216,7.11351351 C76.5837838,11.2756757 77.8702703,18.1621622 75.827027,24.5945946 C74.1621622,29.7405405 70.6810811,34.5081081 65.1567568,39.2 C57.7405405,45.4810811 48.8864865,49.9459459 40.4108108,53.8054054 C35.7189189,55.9243243 30.8,58.1189189 25.5783784,59.1027027 C23.8378378,59.4054054 21.8702703,59.6324324 19.7513514,59.6324324 Z" id="Path"></path>
                </g>
                <path d="M54.1329951,86.071284 C53.224887,86.071284 52.2411032,85.7685813 51.4843464,85.2388516 C50.5005627,84.4820948 49.9708329,83.498311 50.1221843,82.5902029 C50.19786,82.1361489 50.424887,81.7577705 50.5762383,81.3793921 C51.7113735,79.4118245 53.224887,77.671284 55.1167789,76.2334462 C55.79786,75.7037164 56.6302924,75.2496624 57.6140762,74.644257 C58.2194816,74.3415543 59.2032654,73.7361489 60.2627248,74.0388516 C60.9438059,74.1902029 61.4735356,74.7199326 61.851914,75.2496624 C63.2140762,76.9145272 63.7438059,78.5037164 63.3654275,79.9415543 C63.0627248,81.0010137 62.3059681,81.8334462 61.7005627,82.3631759 C60.2627248,83.7253381 58.5221843,84.7847975 56.6302924,85.5415543 C55.9492113,85.7685813 55.1924546,86.071284 54.2843464,86.071284 C54.1329951,86.071284 54.1329951,86.071284 54.1329951,86.071284 Z" id="Path" fill="#FFFFFF" transform="translate(56.790501, 80.013818) rotate(47.000000) translate(-56.790501, -80.013818) "></path>
                <path d="M55.9887945,101.887474 C55.4590647,101.887474 54.7779836,101.811798 54.0969026,101.43342 C52.8860918,100.676663 52.2806863,99.011798 52.8104161,97.4982845 C53.5671728,95.3793656 55.9887945,94.3955818 58.0320377,94.5469331 C59.0914972,94.6226088 59.8482539,95.0009872 60.3779836,95.6063926 C60.9077134,96.211798 61.0590647,96.9685548 60.9077134,97.8009872 C60.6050107,99.238825 59.3185242,100.752339 58.183389,101.357744 C57.5779836,101.736122 56.8212269,101.887474 56.0644701,101.963149 C56.0644701,101.887474 56.0644701,101.887474 55.9887945,101.887474 Z" id="Path" fill="#FFFFFF" transform="translate(56.790501, 98.247474) rotate(31.000000) translate(-56.790501, -98.247474) "></path>
                <g id="Group-5" transform="translate(43.766183, 12.243636)">
                    <rect id="bg" fill="#E63F39" x="0.235224381" y="0.241531232" width="21.06" height="21.06" rx="10.53"></rect>
                    <g id="baseline-play_arrow-24px" transform="translate(7.966989, 5.980731)" fill="#FFFFFF">
                        <polygon id="Path" points="0 0 0 10.1088 7.94262857 5.0544"></polygon>
                    </g>
                </g>
            </g>
        </g>
    </g>
</svg>