<svg width="229px" height="167px" viewBox="0 0 229 167" version="1.1" xmlns="http://www.w3.org/2000/svg" xmlns:xlink="http://www.w3.org/1999/xlink">
    <g id="Page-1" stroke="none" stroke-width="1" fill="none" fill-rule="evenodd">
        <g id="1280-copy-2" transform="translate(-570.000000, -192.000000)" fill="#FFFFFF">
            <g id="Group-9" transform="translate(553.000000, 134.850000)">
                <g id="Group-2" transform="translate(0.396108, 0.772751)">
                    <g id="Фигура_9_2_" transform="translate(133.660380, 118.353917) scale(-1, 1) rotate(22.000000) translate(-133.660380, -118.353917) translate(23.160380, 36.163835)">
                        <path d="M185.201653,164.380165 C184.836364,164.380165 184.653719,164.380165 184.28843,164.197521 C182.096694,163.649587 180.818182,161.82314 179.904959,160.909917 C177.165289,157.257025 174.973554,153.056198 173.147107,148.490083 C170.772727,142.46281 168.946281,135.704959 167.485124,127.120661 C167.119835,125.11157 166.93719,123.285124 166.571901,121.276033 C166.571901,120.910744 166.023967,116.709917 165.658678,116.892562 C163.832231,117.98843 162.005785,119.814876 160.361983,121.093388 C158.535537,122.554545 156.526446,124.198347 154.7,125.659504 C145.750413,132.6 136.435537,138.992562 126.390083,144.106612 C123.833058,145.385124 121.276033,146.480992 118.901653,147.57686 C111.230579,150.681818 103.559504,152.690909 96.0710744,153.421488 C92.0528926,153.786777 88.0347107,153.969421 84.1991736,153.786777 C83.6512397,153.786777 83.2859504,153.786777 82.7380165,153.786777 C81.0942149,153.786777 79.4504132,153.604132 77.8066116,153.238843 C76.1628099,152.873554 75.0669421,152.32562 73.9710744,151.229752 C73.7884298,151.047107 73.4231405,150.681818 73.2404959,150.681818 C72.8752066,150.681818 72.5099174,151.047107 72.3272727,151.229752 L72.1446281,151.412397 C70.6834711,152.508264 68.6743802,153.604132 66.6652893,154.517355 C64.6561983,155.430579 62.4644628,156.161157 59.5421488,156.891736 C54.7933884,157.987603 49.6793388,158.170248 44.5652893,157.439669 C31.9628099,155.613223 20.4561983,148.672727 13.8809917,138.627273 C2.73966942,122.189256 3.83553719,98.0801653 16.2553719,81.4595041 C24.1090909,71.0487603 35.9809917,63.5603306 49.6793388,60.6380165 C53.1495868,59.907438 56.8024793,59.3595041 60.2727273,59.1768595 C62.0991736,59.1768595 63.7429752,59.1768595 65.5694215,59.1768595 C65.9347107,59.1768595 66.4826446,59.3595041 66.8479339,59.3595041 C67.0305785,59.3595041 67.0305785,59.3595041 67.2132231,59.3595041 C67.2132231,59.1768595 67.0305785,58.8115702 67.0305785,58.6289256 C66.3,54.6107438 66.6652893,50.2272727 67.761157,46.2090909 C71.231405,33.7892562 83.468595,23.9264463 97.714876,22.1 C104.472727,21.1867769 111.413223,21.9173554 118.719008,24.1090909 C122.006612,25.022314 125.294215,26.4834711 128.581818,28.1272727 C130.22562,28.8578512 131.686777,29.7710744 133.147934,30.5016529 C133.330579,30.6842975 133.513223,30.6842975 133.695868,30.8669421 C133.695868,30.8669421 133.695868,30.8669421 133.695868,30.8669421 C133.878512,30.5016529 134.061157,30.1363636 134.061157,29.7710744 C135.522314,27.2140496 137.34876,25.022314 139.72314,22.8305785 C143.741322,19.3603306 148.672727,16.4380165 155.247934,14.0636364 C170.955372,8.40165289 192.872727,6.94049587 207.301653,20.2735537 C215.88595,28.1272727 220.452066,40.3644628 219.904132,52.9669421 C219.356198,64.1082645 214.790083,75.4322314 206.936364,85.6603306 C191.046281,106.299174 184.471074,133.695868 189.03719,159.266116 C189.219835,160.361983 188.854545,161.457851 187.941322,162.371074 C187.393388,163.832231 186.297521,164.380165 185.201653,164.380165 Z" id="Path"></path>
                        <path d="M2.92231405,100.271901 C2.73966942,100.271901 2.37438017,100.271901 2.19173554,100.089256 C1.46115702,99.9066116 0.730578512,99.1760331 0.365289256,98.6280992 C-0.182644628,97.5322314 3.55271368e-15,96.253719 0.182644628,95.3404959 C0.547933884,92.0528926 1.09586777,88.2173554 2.19173554,84.3818182 C4.01818182,78.5371901 7.67107438,73.4231405 12.4198347,69.5876033 C14.7942149,67.5785124 17.3512397,66.1173554 20.2735537,64.838843 C20.4561983,64.838843 20.638843,64.6561983 21.0041322,64.4735537 C22.2826446,63.9256198 23.7438017,63.1950413 24.8396694,63.377686 C25.5702479,63.5603306 26.3008264,63.9256198 26.4834711,64.6561983 C26.8487603,65.3867769 26.6661157,66.3 26.1181818,67.0305785 C25.3876033,67.9438017 24.1090909,68.4917355 23.0132231,68.8570248 L22.6479339,69.0396694 C11.8719008,73.0578512 4.20082645,84.7471074 5.11404959,96.253719 C5.11404959,97.3495868 5.29669421,98.9933884 3.83553719,99.9066116 C3.65289256,100.089256 3.28760331,100.271901 2.92231405,100.271901 Z" id="Path"></path>
                        <path d="M137.896694,22.2826446 C137.71405,22.2826446 137.531405,22.2826446 137.34876,22.2826446 C136.618182,22.1 136.070248,21.3694215 135.887603,20.8214876 C135.704959,19.9082645 135.887603,18.9950413 136.800826,17.8991736 C141.184298,11.5066116 148.672727,8.03636364 155.978512,5.29669421 C163.284298,2.55702479 171.868595,-5.15143483e-14 179.539669,2.92231405 C181.000826,3.47024793 181.731405,4.20082645 181.91405,5.29669421 C182.096694,6.57520661 181.000826,7.48842975 180.087603,7.85371901 C179.17438,8.03636364 178.443802,8.03636364 177.713223,7.85371901 L177.347934,7.85371901 C163.466942,6.02727273 148.490083,11.5066116 139.175207,22.1 C138.809917,22.1 138.444628,22.2826446 137.896694,22.2826446 Z" id="Path"></path>
                        <path d="M117.257851,156.161157 C116.709917,156.161157 115.979339,155.978512 115.61405,155.795868 C115.066116,155.430579 114.700826,155.065289 114.700826,154.334711 C114.518182,153.056198 115.61405,151.960331 117.62314,151.412397 C134.243802,147.028926 149.220661,138.079339 161.275207,125.842149 C162.371074,124.746281 163.284298,124.563636 164.014876,124.928926 C164.745455,125.294215 164.928099,126.024793 164.928099,126.390083 C165.658678,128.581818 166.023967,130.773554 166.206612,132.965289 L166.206612,133.147934 C166.389256,134.609091 166.389256,136.435537 165.476033,136.983471 C165.110744,137.166116 164.56281,137.34876 163.649587,136.618182 C162.736364,135.887603 162.553719,134.426446 162.371074,134.243802 C162.371074,133.695868 162.005785,133.147934 161.640496,132.6 C161.640496,132.417355 161.457851,132.417355 161.457851,132.417355 C160.909917,132.417355 160.361983,133.147934 159.996694,133.513223 C159.44876,133.878512 158.900826,134.426446 158.535537,134.791736 C157.439669,135.704959 156.526446,136.435537 155.430579,137.166116 C153.238843,138.809917 151.047107,140.271074 148.855372,141.732231 C144.289256,144.83719 139.357851,147.394215 134.426446,149.768595 C129.495041,152.142975 124.380992,153.969421 119.084298,155.613223 C118.353719,155.978512 117.805785,156.161157 117.257851,156.161157 Z" id="Path"></path>
                    </g>
                </g>
            </g>
        </g>
    </g>
</svg>